# Blender 4.0.2
# www.blender.org
mtllib mokai-logo.mtl
o Curve.001
v 0.491165 -0.012161 -0.109528
v 0.465983 -0.012161 -0.109528
v 0.366376 -0.012161 0.129737
v 0.392854 -0.012161 0.129737
v 0.419360 -0.012161 0.066078
v 0.537789 -0.012161 0.066078
v 0.564294 -0.012161 0.129737
v 0.590772 -0.012161 0.129737
v 0.429554 -0.012161 0.041583
v 0.478581 -0.012161 -0.076169
v 0.527608 -0.012161 0.041583
v 0.429567 -0.012161 0.041583
v -0.019603 -0.012161 -0.115049
v -0.027906 -0.012161 -0.114796
v -0.036000 -0.012161 -0.114036
v -0.043884 -0.012161 -0.112771
v -0.051558 -0.012161 -0.110999
v -0.059023 -0.012161 -0.108721
v -0.066277 -0.012161 -0.105936
v -0.073322 -0.012161 -0.102646
v -0.080156 -0.012161 -0.098850
v -0.086781 -0.012161 -0.094547
v -0.093196 -0.012161 -0.089739
v -0.099402 -0.012161 -0.084425
v -0.105397 -0.012161 -0.078605
v -0.111042 -0.012161 -0.072422
v -0.116196 -0.012161 -0.066019
v -0.120860 -0.012161 -0.059396
v -0.125033 -0.012161 -0.052553
v -0.128716 -0.012161 -0.045491
v -0.131907 -0.012161 -0.038208
v -0.134608 -0.012161 -0.030706
v -0.136817 -0.012161 -0.022984
v -0.138536 -0.012161 -0.015041
v -0.139764 -0.012161 -0.006879
v -0.140501 -0.012161 0.001503
v -0.140746 -0.012161 0.010105
v -0.140501 -0.012161 0.018719
v -0.139764 -0.012161 0.027133
v -0.138536 -0.012161 0.035342
v -0.136817 -0.012161 0.043342
v -0.134608 -0.012161 0.051127
v -0.131907 -0.012161 0.058692
v -0.128716 -0.012161 0.066032
v -0.125033 -0.012161 0.073142
v -0.120860 -0.012161 0.080017
v -0.116196 -0.012161 0.086651
v -0.111042 -0.012161 0.093041
v -0.105397 -0.012161 0.099180
v -0.099402 -0.012161 0.104941
v -0.093196 -0.012161 0.110202
v -0.086781 -0.012161 0.114962
v -0.080156 -0.012161 0.119222
v -0.073322 -0.012161 0.122980
v -0.066277 -0.012161 0.126237
v -0.059023 -0.012161 0.128994
v -0.051558 -0.012161 0.131249
v -0.043884 -0.012161 0.133003
v -0.036000 -0.012161 0.134256
v -0.027906 -0.012161 0.135008
v -0.019603 -0.012161 0.135259
v -0.011292 -0.012161 0.135008
v -0.003178 -0.012161 0.134257
v 0.004736 -0.012161 0.133005
v 0.012448 -0.012161 0.131252
v 0.019955 -0.012161 0.128998
v 0.027256 -0.012161 0.126242
v 0.034346 -0.012161 0.122986
v 0.041225 -0.012161 0.119228
v 0.047889 -0.012161 0.114968
v 0.054336 -0.012161 0.110207
v 0.060564 -0.012161 0.104944
v 0.066569 -0.012161 0.099180
v 0.072215 -0.012161 0.093050
v 0.077369 -0.012161 0.086685
v 0.082033 -0.012161 0.080085
v 0.086206 -0.012161 0.073250
v 0.089888 -0.012161 0.066180
v 0.093080 -0.012161 0.058875
v 0.095780 -0.012161 0.051334
v 0.097990 -0.012161 0.043559
v 0.099709 -0.012161 0.035548
v 0.100936 -0.012161 0.027302
v 0.101673 -0.012161 0.018821
v 0.101919 -0.012161 0.010105
v 0.101672 -0.012161 0.001401
v 0.100932 -0.012161 -0.007048
v 0.099698 -0.012161 -0.015247
v 0.097971 -0.012161 -0.023200
v 0.095750 -0.012161 -0.030913
v 0.093036 -0.012161 -0.038391
v 0.089828 -0.012161 -0.045639
v 0.086126 -0.012161 -0.052662
v 0.081930 -0.012161 -0.059465
v 0.077241 -0.012161 -0.066053
v 0.072058 -0.012161 -0.072431
v 0.066380 -0.012161 -0.078605
v 0.060356 -0.012161 -0.084425
v 0.054124 -0.012161 -0.089739
v 0.047684 -0.012161 -0.094547
v 0.041037 -0.012161 -0.098850
v 0.034182 -0.012161 -0.102646
v 0.027121 -0.012161 -0.105936
v 0.019851 -0.012161 -0.108721
v 0.012375 -0.012161 -0.110999
v 0.004691 -0.012161 -0.112771
v -0.003200 -0.012161 -0.114036
v -0.011298 -0.012161 -0.114796
v 0.049259 -0.012161 0.081884
v 0.044505 -0.012161 0.086469
v 0.039571 -0.012161 0.090656
v 0.034459 -0.012161 0.094444
v 0.029168 -0.012161 0.097834
v 0.023698 -0.012161 0.100826
v 0.018049 -0.012161 0.103419
v 0.012221 -0.012161 0.105613
v 0.006214 -0.012161 0.107409
v 0.000028 -0.012161 0.108805
v -0.006337 -0.012161 0.109803
v -0.012880 -0.012161 0.110402
v -0.019603 -0.012161 0.110602
v -0.026318 -0.012161 0.110402
v -0.032842 -0.012161 0.109804
v -0.039177 -0.012161 0.108807
v -0.045325 -0.012161 0.107412
v -0.051289 -0.012161 0.105617
v -0.057072 -0.012161 0.103424
v -0.062676 -0.012161 0.100832
v -0.068103 -0.012161 0.097840
v -0.073357 -0.012161 0.094450
v -0.078439 -0.012161 0.090661
v -0.083353 -0.012161 0.086472
v -0.088100 -0.012161 0.081884
v -0.092571 -0.012161 0.077001
v -0.096653 -0.012161 0.071917
v -0.100346 -0.012161 0.066634
v -0.103651 -0.012161 0.061152
v -0.106566 -0.012161 0.055469
v -0.109093 -0.012161 0.049588
v -0.111231 -0.012161 0.043506
v -0.112981 -0.012161 0.037225
v -0.114341 -0.012161 0.030745
v -0.115313 -0.012161 0.024064
v -0.115896 -0.012161 0.017184
v -0.116091 -0.012161 0.010105
v -0.115896 -0.012161 0.003026
v -0.115313 -0.012161 -0.003854
v -0.114341 -0.012161 -0.010533
v -0.112981 -0.012161 -0.017012
v -0.111231 -0.012161 -0.023292
v -0.109093 -0.012161 -0.029373
v -0.106566 -0.012161 -0.035254
v -0.103651 -0.012161 -0.040936
v -0.100346 -0.012161 -0.046419
v -0.096653 -0.012161 -0.051703
v -0.092571 -0.012161 -0.056788
v -0.088100 -0.012161 -0.061675
v -0.083351 -0.012161 -0.066260
v -0.078428 -0.012161 -0.070446
v -0.073330 -0.012161 -0.074235
v -0.068058 -0.012161 -0.077625
v -0.062612 -0.012161 -0.080616
v -0.056991 -0.012161 -0.083209
v -0.051195 -0.012161 -0.085403
v -0.045226 -0.012161 -0.087199
v -0.039082 -0.012161 -0.088596
v -0.032763 -0.012161 -0.089594
v -0.026270 -0.012161 -0.090192
v -0.019603 -0.012161 -0.090392
v -0.012928 -0.012161 -0.090193
v -0.006416 -0.012161 -0.089594
v -0.000069 -0.012161 -0.088598
v 0.006112 -0.012161 -0.087202
v 0.012123 -0.012161 -0.085408
v 0.017963 -0.012161 -0.083214
v 0.023628 -0.012161 -0.080622
v 0.029117 -0.012161 -0.077631
v 0.034427 -0.012161 -0.074240
v 0.039556 -0.012161 -0.070451
v 0.044501 -0.012161 -0.066262
v 0.049259 -0.012161 -0.061675
v 0.053727 -0.012161 -0.056791
v 0.057807 -0.012161 -0.051708
v 0.061500 -0.012161 -0.046425
v 0.064804 -0.012161 -0.040942
v 0.067720 -0.012161 -0.035260
v 0.070247 -0.012161 -0.029378
v 0.072386 -0.012161 -0.023296
v 0.074137 -0.012161 -0.017015
v 0.075499 -0.012161 -0.010535
v 0.076471 -0.012161 -0.003855
v 0.077055 -0.012161 0.003025
v 0.077250 -0.012161 0.010105
v 0.077055 -0.012161 0.017184
v 0.076472 -0.012161 0.024064
v 0.075500 -0.012161 0.030745
v 0.074140 -0.012161 0.037225
v 0.072390 -0.012161 0.043506
v 0.070252 -0.012161 0.049588
v 0.067725 -0.012161 0.055469
v 0.064810 -0.012161 0.061152
v 0.061505 -0.012161 0.066634
v 0.057812 -0.012161 0.071917
v 0.053730 -0.012161 0.077001
v -0.210540 -0.012161 -0.109677
v -0.321529 -0.012161 0.013556
v -0.331781 -0.012161 0.005475
v -0.341673 -0.012161 -0.002953
v -0.351221 -0.012161 -0.011741
v -0.360440 -0.012161 -0.020906
v -0.369348 -0.012161 -0.030464
v -0.377961 -0.012161 -0.040429
v -0.386294 -0.012161 -0.050818
v -0.394364 -0.012161 -0.061645
v -0.402187 -0.012161 -0.072926
v -0.409780 -0.012161 -0.084677
v -0.417157 -0.012161 -0.096913
v -0.424337 -0.012161 -0.109649
v -0.424847 -0.012161 -0.109650
v -0.426259 -0.012161 -0.109651
v -0.428391 -0.012161 -0.109654
v -0.431065 -0.012161 -0.109656
v -0.434098 -0.012161 -0.109660
v -0.437312 -0.012161 -0.109663
v -0.440526 -0.012161 -0.109666
v -0.443560 -0.012161 -0.109669
v -0.446233 -0.012161 -0.109672
v -0.448366 -0.012161 -0.109674
v -0.449777 -0.012161 -0.109676
v -0.450288 -0.012161 -0.109677
v -0.450288 -0.012161 0.129724
v -0.426456 -0.012161 0.129724
v -0.426456 -0.012161 -0.066506
v -0.421927 -0.012161 -0.059610
v -0.417324 -0.012161 -0.052872
v -0.412646 -0.012161 -0.046290
v -0.407890 -0.012161 -0.039861
v -0.403056 -0.012161 -0.033584
v -0.398140 -0.012161 -0.027456
v -0.393143 -0.012161 -0.021475
v -0.388061 -0.012161 -0.015638
v -0.382893 -0.012161 -0.009942
v -0.377638 -0.012161 -0.004387
v -0.372293 -0.012161 0.001032
v -0.366857 -0.012161 0.006316
v -0.358913 -0.012161 0.013646
v -0.350721 -0.012161 0.020761
v -0.342271 -0.012161 0.027665
v -0.333558 -0.012161 0.034363
v -0.324573 -0.012161 0.040860
v -0.315310 -0.012161 0.047160
v -0.305760 -0.012161 0.053269
v -0.295917 -0.012161 0.059192
v -0.285774 -0.012161 0.064933
v -0.275322 -0.012161 0.070497
v -0.264554 -0.012161 0.075888
v -0.253464 -0.012161 0.081113
v -0.253269 -0.012161 0.080685
v -0.252732 -0.012161 0.079503
v -0.251920 -0.012161 0.077717
v -0.250901 -0.012161 0.075478
v -0.249746 -0.012161 0.072938
v -0.248522 -0.012161 0.070246
v -0.247298 -0.012161 0.067554
v -0.246143 -0.012161 0.065014
v -0.245125 -0.012161 0.062775
v -0.244312 -0.012161 0.060989
v -0.243775 -0.012161 0.059806
v -0.243580 -0.012161 0.059379
v -0.248842 -0.012161 0.056938
v -0.254027 -0.012161 0.054460
v -0.259137 -0.012161 0.051945
v -0.264173 -0.012161 0.049389
v -0.269137 -0.012161 0.046794
v -0.274028 -0.012161 0.044157
v -0.278849 -0.012161 0.041479
v -0.283599 -0.012161 0.038756
v -0.288281 -0.012161 0.035990
v -0.292895 -0.012161 0.033178
v -0.297442 -0.012161 0.030320
v -0.301924 -0.012161 0.027414
v -0.300134 -0.012161 0.025426
v -0.295184 -0.012161 0.019930
v -0.287706 -0.012161 0.011629
v -0.278333 -0.012161 0.001222
v -0.267696 -0.012161 -0.010587
v -0.256428 -0.012161 -0.023099
v -0.245159 -0.012161 -0.035610
v -0.234522 -0.012161 -0.047419
v -0.225149 -0.012161 -0.057826
v -0.217672 -0.012161 -0.066128
v -0.212722 -0.012161 -0.071623
v -0.210931 -0.012161 -0.073611
v -0.210931 -0.012161 0.129737
v -0.187100 -0.012161 0.129737
v -0.187100 -0.012161 -0.109677
v 0.261679 -0.012161 -0.019235
v 0.268450 -0.012161 -0.025474
v 0.275067 -0.012161 -0.031934
v 0.281533 -0.012161 -0.038619
v 0.287851 -0.012161 -0.045533
v 0.294026 -0.012161 -0.052682
v 0.300061 -0.012161 -0.060069
v 0.305959 -0.012161 -0.067700
v 0.311723 -0.012161 -0.075579
v 0.317356 -0.012161 -0.083710
v 0.322864 -0.012161 -0.092098
v 0.328248 -0.012161 -0.100747
v 0.333511 -0.012161 -0.109663
v 0.332944 -0.012161 -0.109663
v 0.331376 -0.012161 -0.109663
v 0.329007 -0.012161 -0.109663
v 0.326038 -0.012161 -0.109663
v 0.322668 -0.012161 -0.109663
v 0.319098 -0.012161 -0.109663
v 0.315528 -0.012161 -0.109663
v 0.312158 -0.012161 -0.109663
v 0.309188 -0.012161 -0.109663
v 0.306819 -0.012161 -0.109663
v 0.305251 -0.012161 -0.109663
v 0.304684 -0.012161 -0.109663
v 0.296030 -0.012161 -0.096324
v 0.287036 -0.012161 -0.083674
v 0.277672 -0.012161 -0.071687
v 0.267911 -0.012161 -0.060336
v 0.257723 -0.012161 -0.049594
v 0.247081 -0.012161 -0.039435
v 0.235956 -0.012161 -0.029832
v 0.224320 -0.012161 -0.020759
v 0.212144 -0.012161 -0.012189
v 0.199399 -0.012161 -0.004095
v 0.186057 -0.012161 0.003548
v 0.172091 -0.012161 0.010768
v 0.172091 -0.012161 0.008398
v 0.172091 -0.012161 0.001846
v 0.172091 -0.012161 -0.008051
v 0.172091 -0.012161 -0.020458
v 0.172091 -0.012161 -0.034538
v 0.172091 -0.012161 -0.049454
v 0.172091 -0.012161 -0.064370
v 0.172091 -0.012161 -0.078450
v 0.172091 -0.012161 -0.090857
v 0.172091 -0.012161 -0.100755
v 0.172091 -0.012161 -0.107307
v 0.172091 -0.012161 -0.109677
v 0.148259 -0.012161 -0.109677
v 0.148259 -0.012161 0.129724
v 0.172091 -0.012161 0.129724
v 0.172091 -0.012161 0.038172
v 0.176946 -0.012161 0.035917
v 0.181731 -0.012161 0.033622
v 0.186446 -0.012161 0.031289
v 0.191092 -0.012161 0.028915
v 0.195670 -0.012161 0.026501
v 0.200181 -0.012161 0.024046
v 0.204624 -0.012161 0.021549
v 0.209002 -0.012161 0.019011
v 0.213315 -0.012161 0.016430
v 0.217563 -0.012161 0.013806
v 0.221748 -0.012161 0.011138
v 0.225871 -0.012161 0.008427
v 0.227612 -0.012161 0.010813
v 0.232428 -0.012161 0.017412
v 0.239702 -0.012161 0.027379
v 0.248821 -0.012161 0.039874
v 0.259169 -0.012161 0.054054
v 0.270131 -0.012161 0.069075
v 0.281094 -0.012161 0.084097
v 0.291442 -0.012161 0.098276
v 0.300561 -0.012161 0.110771
v 0.307835 -0.012161 0.120739
v 0.312650 -0.012161 0.127337
v 0.314392 -0.012161 0.129724
v 0.345056 -0.012161 0.129724
v 0.245935 -0.012161 -0.006081
v 0.247285 -0.012161 -0.007146
v 0.248628 -0.012161 -0.008216
v 0.249963 -0.012161 -0.009291
v 0.251291 -0.012161 -0.010373
v 0.252613 -0.012161 -0.011460
v 0.253927 -0.012161 -0.012553
v 0.255234 -0.012161 -0.013652
v 0.256534 -0.012161 -0.014758
v 0.257827 -0.012161 -0.015870
v 0.259113 -0.012161 -0.016989
v 0.260393 -0.012161 -0.018115
v 0.261665 -0.012161 -0.019248
v 0.261666 -0.012161 -0.019248
v 0.261666 -0.012161 -0.019247
v 0.261667 -0.012161 -0.019246
v 0.261669 -0.012161 -0.019245
v 0.261670 -0.012161 -0.019243
v 0.261672 -0.012161 -0.019242
v 0.261674 -0.012161 -0.019240
v 0.261675 -0.012161 -0.019238
v 0.261677 -0.012161 -0.019237
v 0.261678 -0.012161 -0.019236
v 0.261678 -0.012161 -0.019235
v 0.627472 -0.012161 0.129737
v 0.627472 -0.012161 -0.109528
v 0.650642 -0.012161 -0.109528
v 0.650642 -0.012161 0.129737
v 0.491165 0.012161 -0.109528
v 0.465983 0.012161 -0.109528
v 0.366376 0.012161 0.129737
v 0.392854 0.012161 0.129737
v 0.419360 0.012161 0.066078
v 0.537789 0.012161 0.066078
v 0.564294 0.012161 0.129737
v 0.590772 0.012161 0.129737
v 0.429554 0.012161 0.041583
v 0.478581 0.012161 -0.076169
v 0.527608 0.012161 0.041583
v 0.429567 0.012161 0.041583
v -0.019603 0.012161 -0.115049
v -0.027906 0.012161 -0.114796
v -0.036000 0.012161 -0.114036
v -0.043884 0.012161 -0.112771
v -0.051558 0.012161 -0.110999
v -0.059023 0.012161 -0.108721
v -0.066277 0.012161 -0.105936
v -0.073322 0.012161 -0.102646
v -0.080156 0.012161 -0.098850
v -0.086781 0.012161 -0.094547
v -0.093196 0.012161 -0.089739
v -0.099402 0.012161 -0.084425
v -0.105397 0.012161 -0.078605
v -0.111042 0.012161 -0.072422
v -0.116196 0.012161 -0.066019
v -0.120860 0.012161 -0.059396
v -0.125033 0.012161 -0.052553
v -0.128716 0.012161 -0.045491
v -0.131907 0.012161 -0.038208
v -0.134608 0.012161 -0.030706
v -0.136817 0.012161 -0.022984
v -0.138536 0.012161 -0.015041
v -0.139764 0.012161 -0.006879
v -0.140501 0.012161 0.001503
v -0.140746 0.012161 0.010105
v -0.140501 0.012161 0.018719
v -0.139764 0.012161 0.027133
v -0.138536 0.012161 0.035342
v -0.136817 0.012161 0.043342
v -0.134608 0.012161 0.051127
v -0.131907 0.012161 0.058692
v -0.128716 0.012161 0.066032
v -0.125033 0.012161 0.073142
v -0.120860 0.012161 0.080017
v -0.116196 0.012161 0.086651
v -0.111042 0.012161 0.093041
v -0.105397 0.012161 0.099180
v -0.099402 0.012161 0.104941
v -0.093196 0.012161 0.110202
v -0.086781 0.012161 0.114962
v -0.080156 0.012161 0.119222
v -0.073322 0.012161 0.122980
v -0.066277 0.012161 0.126237
v -0.059023 0.012161 0.128994
v -0.051558 0.012161 0.131249
v -0.043884 0.012161 0.133003
v -0.036000 0.012161 0.134256
v -0.027906 0.012161 0.135008
v -0.019603 0.012161 0.135259
v -0.011292 0.012161 0.135008
v -0.003178 0.012161 0.134257
v 0.004736 0.012161 0.133005
v 0.012448 0.012161 0.131252
v 0.019955 0.012161 0.128998
v 0.027256 0.012161 0.126242
v 0.034346 0.012161 0.122986
v 0.041225 0.012161 0.119228
v 0.047889 0.012161 0.114968
v 0.054336 0.012161 0.110207
v 0.060564 0.012161 0.104944
v 0.066569 0.012161 0.099180
v 0.072215 0.012161 0.093050
v 0.077369 0.012161 0.086685
v 0.082033 0.012161 0.080085
v 0.086206 0.012161 0.073250
v 0.089888 0.012161 0.066180
v 0.093080 0.012161 0.058875
v 0.095780 0.012161 0.051334
v 0.097990 0.012161 0.043559
v 0.099709 0.012161 0.035548
v 0.100936 0.012161 0.027302
v 0.101673 0.012161 0.018821
v 0.101919 0.012161 0.010105
v 0.101672 0.012161 0.001401
v 0.100932 0.012161 -0.007048
v 0.099698 0.012161 -0.015247
v 0.097971 0.012161 -0.023200
v 0.095750 0.012161 -0.030913
v 0.093036 0.012161 -0.038391
v 0.089828 0.012161 -0.045639
v 0.086126 0.012161 -0.052662
v 0.081930 0.012161 -0.059465
v 0.077241 0.012161 -0.066053
v 0.072058 0.012161 -0.072431
v 0.066380 0.012161 -0.078605
v 0.060356 0.012161 -0.084425
v 0.054124 0.012161 -0.089739
v 0.047684 0.012161 -0.094547
v 0.041037 0.012161 -0.098850
v 0.034182 0.012161 -0.102646
v 0.027121 0.012161 -0.105936
v 0.019851 0.012161 -0.108721
v 0.012375 0.012161 -0.110999
v 0.004691 0.012161 -0.112771
v -0.003200 0.012161 -0.114036
v -0.011298 0.012161 -0.114796
v 0.049259 0.012161 0.081884
v 0.044505 0.012161 0.086469
v 0.039571 0.012161 0.090656
v 0.034459 0.012161 0.094444
v 0.029168 0.012161 0.097834
v 0.023698 0.012161 0.100826
v 0.018049 0.012161 0.103419
v 0.012221 0.012161 0.105613
v 0.006214 0.012161 0.107409
v 0.000028 0.012161 0.108805
v -0.006337 0.012161 0.109803
v -0.012880 0.012161 0.110402
v -0.019603 0.012161 0.110602
v -0.026318 0.012161 0.110402
v -0.032842 0.012161 0.109804
v -0.039177 0.012161 0.108807
v -0.045325 0.012161 0.107412
v -0.051289 0.012161 0.105617
v -0.057072 0.012161 0.103424
v -0.062676 0.012161 0.100832
v -0.068103 0.012161 0.097840
v -0.073357 0.012161 0.094450
v -0.078439 0.012161 0.090661
v -0.083353 0.012161 0.086472
v -0.088100 0.012161 0.081884
v -0.092571 0.012161 0.077001
v -0.096653 0.012161 0.071917
v -0.100346 0.012161 0.066634
v -0.103651 0.012161 0.061152
v -0.106566 0.012161 0.055469
v -0.109093 0.012161 0.049588
v -0.111231 0.012161 0.043506
v -0.112981 0.012161 0.037225
v -0.114341 0.012161 0.030745
v -0.115313 0.012161 0.024064
v -0.115896 0.012161 0.017184
v -0.116091 0.012161 0.010105
v -0.115896 0.012161 0.003026
v -0.115313 0.012161 -0.003854
v -0.114341 0.012161 -0.010533
v -0.112981 0.012161 -0.017012
v -0.111231 0.012161 -0.023292
v -0.109093 0.012161 -0.029373
v -0.106566 0.012161 -0.035254
v -0.103651 0.012161 -0.040936
v -0.100346 0.012161 -0.046419
v -0.096653 0.012161 -0.051703
v -0.092571 0.012161 -0.056788
v -0.088100 0.012161 -0.061675
v -0.083351 0.012161 -0.066260
v -0.078428 0.012161 -0.070446
v -0.073330 0.012161 -0.074235
v -0.068058 0.012161 -0.077625
v -0.062612 0.012161 -0.080616
v -0.056991 0.012161 -0.083209
v -0.051195 0.012161 -0.085403
v -0.045226 0.012161 -0.087199
v -0.039082 0.012161 -0.088596
v -0.032763 0.012161 -0.089594
v -0.026270 0.012161 -0.090192
v -0.019603 0.012161 -0.090392
v -0.012928 0.012161 -0.090193
v -0.006416 0.012161 -0.089594
v -0.000069 0.012161 -0.088598
v 0.006112 0.012161 -0.087202
v 0.012123 0.012161 -0.085408
v 0.017963 0.012161 -0.083214
v 0.023628 0.012161 -0.080622
v 0.029117 0.012161 -0.077631
v 0.034427 0.012161 -0.074240
v 0.039556 0.012161 -0.070451
v 0.044501 0.012161 -0.066262
v 0.049259 0.012161 -0.061675
v 0.053727 0.012161 -0.056791
v 0.057807 0.012161 -0.051708
v 0.061500 0.012161 -0.046425
v 0.064804 0.012161 -0.040942
v 0.067720 0.012161 -0.035260
v 0.070247 0.012161 -0.029378
v 0.072386 0.012161 -0.023296
v 0.074137 0.012161 -0.017015
v 0.075499 0.012161 -0.010535
v 0.076471 0.012161 -0.003855
v 0.077055 0.012161 0.003025
v 0.077250 0.012161 0.010105
v 0.077055 0.012161 0.017184
v 0.076472 0.012161 0.024064
v 0.075500 0.012161 0.030745
v 0.074140 0.012161 0.037225
v 0.072390 0.012161 0.043506
v 0.070252 0.012161 0.049588
v 0.067725 0.012161 0.055469
v 0.064810 0.012161 0.061152
v 0.061505 0.012161 0.066634
v 0.057812 0.012161 0.071917
v 0.053730 0.012161 0.077001
v -0.210540 0.012161 -0.109677
v -0.321529 0.012161 0.013556
v -0.331781 0.012161 0.005475
v -0.341673 0.012161 -0.002953
v -0.351221 0.012161 -0.011741
v -0.360440 0.012161 -0.020906
v -0.369348 0.012161 -0.030464
v -0.377961 0.012161 -0.040429
v -0.386294 0.012161 -0.050818
v -0.394364 0.012161 -0.061645
v -0.402187 0.012161 -0.072926
v -0.409780 0.012161 -0.084677
v -0.417157 0.012161 -0.096913
v -0.424337 0.012161 -0.109649
v -0.424847 0.012161 -0.109650
v -0.426259 0.012161 -0.109651
v -0.428391 0.012161 -0.109654
v -0.431065 0.012161 -0.109656
v -0.434098 0.012161 -0.109660
v -0.437312 0.012161 -0.109663
v -0.440526 0.012161 -0.109666
v -0.443560 0.012161 -0.109669
v -0.446233 0.012161 -0.109672
v -0.448366 0.012161 -0.109674
v -0.449777 0.012161 -0.109676
v -0.450288 0.012161 -0.109677
v -0.450288 0.012161 0.129724
v -0.426456 0.012161 0.129724
v -0.426456 0.012161 -0.066506
v -0.421927 0.012161 -0.059610
v -0.417324 0.012161 -0.052872
v -0.412646 0.012161 -0.046290
v -0.407890 0.012161 -0.039861
v -0.403056 0.012161 -0.033584
v -0.398140 0.012161 -0.027456
v -0.393143 0.012161 -0.021475
v -0.388061 0.012161 -0.015638
v -0.382893 0.012161 -0.009942
v -0.377638 0.012161 -0.004387
v -0.372293 0.012161 0.001032
v -0.366857 0.012161 0.006316
v -0.358913 0.012161 0.013646
v -0.350721 0.012161 0.020761
v -0.342271 0.012161 0.027665
v -0.333558 0.012161 0.034363
v -0.324573 0.012161 0.040860
v -0.315310 0.012161 0.047160
v -0.305760 0.012161 0.053269
v -0.295917 0.012161 0.059192
v -0.285774 0.012161 0.064933
v -0.275322 0.012161 0.070497
v -0.264554 0.012161 0.075888
v -0.253464 0.012161 0.081113
v -0.253269 0.012161 0.080685
v -0.252732 0.012161 0.079503
v -0.251920 0.012161 0.077717
v -0.250901 0.012161 0.075478
v -0.249746 0.012161 0.072938
v -0.248522 0.012161 0.070246
v -0.247298 0.012161 0.067554
v -0.246143 0.012161 0.065014
v -0.245125 0.012161 0.062775
v -0.244312 0.012161 0.060989
v -0.243775 0.012161 0.059806
v -0.243580 0.012161 0.059379
v -0.248842 0.012161 0.056938
v -0.254027 0.012161 0.054460
v -0.259137 0.012161 0.051945
v -0.264173 0.012161 0.049389
v -0.269137 0.012161 0.046794
v -0.274028 0.012161 0.044157
v -0.278849 0.012161 0.041479
v -0.283599 0.012161 0.038756
v -0.288281 0.012161 0.035990
v -0.292895 0.012161 0.033178
v -0.297442 0.012161 0.030320
v -0.301924 0.012161 0.027414
v -0.300134 0.012161 0.025426
v -0.295184 0.012161 0.019930
v -0.287706 0.012161 0.011629
v -0.278333 0.012161 0.001222
v -0.267696 0.012161 -0.010587
v -0.256428 0.012161 -0.023099
v -0.245159 0.012161 -0.035610
v -0.234522 0.012161 -0.047419
v -0.225149 0.012161 -0.057826
v -0.217672 0.012161 -0.066128
v -0.212722 0.012161 -0.071623
v -0.210931 0.012161 -0.073611
v -0.210931 0.012161 0.129737
v -0.187100 0.012161 0.129737
v -0.187100 0.012161 -0.109677
v 0.261679 0.012161 -0.019235
v 0.268450 0.012161 -0.025474
v 0.275067 0.012161 -0.031934
v 0.281533 0.012161 -0.038619
v 0.287851 0.012161 -0.045533
v 0.294026 0.012161 -0.052682
v 0.300061 0.012161 -0.060069
v 0.305959 0.012161 -0.067700
v 0.311723 0.012161 -0.075579
v 0.317356 0.012161 -0.083710
v 0.322864 0.012161 -0.092098
v 0.328248 0.012161 -0.100747
v 0.333511 0.012161 -0.109663
v 0.332944 0.012161 -0.109663
v 0.331376 0.012161 -0.109663
v 0.329007 0.012161 -0.109663
v 0.326038 0.012161 -0.109663
v 0.322668 0.012161 -0.109663
v 0.319098 0.012161 -0.109663
v 0.315528 0.012161 -0.109663
v 0.312158 0.012161 -0.109663
v 0.309188 0.012161 -0.109663
v 0.306819 0.012161 -0.109663
v 0.305251 0.012161 -0.109663
v 0.304684 0.012161 -0.109663
v 0.296030 0.012161 -0.096324
v 0.287036 0.012161 -0.083674
v 0.277672 0.012161 -0.071687
v 0.267911 0.012161 -0.060336
v 0.257723 0.012161 -0.049594
v 0.247081 0.012161 -0.039435
v 0.235956 0.012161 -0.029832
v 0.224320 0.012161 -0.020759
v 0.212144 0.012161 -0.012189
v 0.199399 0.012161 -0.004095
v 0.186057 0.012161 0.003548
v 0.172091 0.012161 0.010768
v 0.172091 0.012161 0.008398
v 0.172091 0.012161 0.001846
v 0.172091 0.012161 -0.008051
v 0.172091 0.012161 -0.020458
v 0.172091 0.012161 -0.034538
v 0.172091 0.012161 -0.049454
v 0.172091 0.012161 -0.064370
v 0.172091 0.012161 -0.078450
v 0.172091 0.012161 -0.090857
v 0.172091 0.012161 -0.100755
v 0.172091 0.012161 -0.107307
v 0.172091 0.012161 -0.109677
v 0.148259 0.012161 -0.109677
v 0.148259 0.012161 0.129724
v 0.172091 0.012161 0.129724
v 0.172091 0.012161 0.038172
v 0.176946 0.012161 0.035917
v 0.181731 0.012161 0.033622
v 0.186446 0.012161 0.031289
v 0.191092 0.012161 0.028915
v 0.195670 0.012161 0.026501
v 0.200181 0.012161 0.024046
v 0.204624 0.012161 0.021549
v 0.209002 0.012161 0.019011
v 0.213315 0.012161 0.016430
v 0.217563 0.012161 0.013806
v 0.221748 0.012161 0.011138
v 0.225871 0.012161 0.008427
v 0.227612 0.012161 0.010813
v 0.232428 0.012161 0.017412
v 0.239702 0.012161 0.027379
v 0.248821 0.012161 0.039874
v 0.259169 0.012161 0.054054
v 0.270131 0.012161 0.069075
v 0.281094 0.012161 0.084097
v 0.291442 0.012161 0.098276
v 0.300561 0.012161 0.110771
v 0.307835 0.012161 0.120739
v 0.312650 0.012161 0.127337
v 0.314392 0.012161 0.129724
v 0.345056 0.012161 0.129724
v 0.245935 0.012161 -0.006081
v 0.247285 0.012161 -0.007146
v 0.248628 0.012161 -0.008216
v 0.249963 0.012161 -0.009291
v 0.251291 0.012161 -0.010373
v 0.252613 0.012161 -0.011460
v 0.253927 0.012161 -0.012553
v 0.255234 0.012161 -0.013652
v 0.256534 0.012161 -0.014758
v 0.257827 0.012161 -0.015870
v 0.259113 0.012161 -0.016989
v 0.260393 0.012161 -0.018115
v 0.261665 0.012161 -0.019248
v 0.261666 0.012161 -0.019248
v 0.261666 0.012161 -0.019247
v 0.261667 0.012161 -0.019246
v 0.261669 0.012161 -0.019245
v 0.261670 0.012161 -0.019243
v 0.261672 0.012161 -0.019242
v 0.261674 0.012161 -0.019240
v 0.261675 0.012161 -0.019238
v 0.261677 0.012161 -0.019237
v 0.261678 0.012161 -0.019236
v 0.261678 0.012161 -0.019235
v 0.627472 0.012161 0.129737
v 0.627472 0.012161 -0.109528
v 0.650642 0.012161 -0.109528
v 0.650642 0.012161 0.129737
vn -0.0000 -1.0000 -0.0000
vn 0.1240 -0.9923 -0.0000
vn 0.2425 -0.9701 -0.0000
vn 0.4472 -0.8944 -0.0000
vn 0.7071 -0.7071 -0.0000
vn -0.0000 1.0000 -0.0000
vn -0.0250 0.9997 -0.0000
vn 0.1240 0.9923 -0.0000
vn -0.7113 -0.0000 0.7029
vn 0.5204 -0.0000 -0.8539
vn 0.8565 -0.0000 -0.5162
vn 0.9962 -0.0000 -0.0873
vn -0.7138 -0.0000 0.7003
vn 0.2915 -0.0000 -0.9566
vn 0.9400 -0.0000 -0.3412
vn -0.7033 -0.0000 0.7109
vn 0.8147 -0.0000 -0.5799
vn 0.6488 -0.0000 -0.7609
vn 0.6564 -0.0000 0.7544
vn 0.9188 -0.0000 -0.3947
vn -0.5395 -0.0000 -0.8420
vn 0.4223 -0.0000 -0.9064
vn -0.4592 -0.0000 -0.8883
vn 0.6649 -0.0000 0.7469
vn 0.1584 -0.0000 -0.9874
vn -0.2864 -0.0000 -0.9581
vn -0.0297 -0.0000 -0.9996
vn -0.6470 -0.0000 -0.7625
vn 1.0000 -0.0000 -0.0000
vn 0.2214 -0.0000 -0.9752
vn 0.2876 -0.0000 0.9578
vn 0.7430 -0.0000 0.6693
vn 0.4827 -0.0000 -0.8758
vn -0.4172 -0.0000 -0.9088
vn -0.0000 -0.0000 -1.0000
vn -0.0000 -0.0000 1.0000
vn -0.1549 -0.0000 -0.9879
vn 0.7430 -0.0000 0.6692
vn 0.6949 -0.0000 -0.7191
vn 0.4634 -0.0000 -0.8862
vn 0.0913 -0.0000 -0.9958
vn 0.4858 -0.0000 -0.8741
vn 0.5087 -0.0000 -0.8609
vn 0.4312 -0.0000 -0.9023
vn 0.9996 -0.0000 -0.0274
vn 0.5977 -0.0000 -0.8017
vn 0.9103 -0.0000 0.4140
vn 0.5322 -0.0000 -0.8466
vn 0.9787 -0.0000 0.2055
vn 0.7797 -0.0000 -0.6261
vn 0.9633 -0.0000 -0.2683
vn 0.8897 -0.0000 0.4565
vn 0.4814 -0.0000 0.8765
vn -0.5629 -0.0000 0.8265
vn 0.5408 -0.0000 0.8411
vn 0.9964 -0.0000 0.0845
vn 0.6193 -0.0000 0.7851
vn -1.0000 -0.0000 -0.0000
vn 0.9434 -0.0000 0.3317
vn 0.6776 -0.0000 0.7354
vn 0.1554 -0.0000 -0.9878
vn 0.7188 -0.0000 0.6952
vn -0.2203 -0.0000 0.9754
vn 0.7568 -0.0000 0.6537
vn -0.4785 -0.0000 0.8781
vn 0.4189 -0.0000 0.9080
vn 0.7912 -0.0000 0.6115
vn 0.1560 -0.0000 0.9878
vn 0.8220 -0.0000 0.5695
vn -0.6940 -0.0000 0.7199
vn -0.0915 -0.0000 0.9958
vn 0.8490 -0.0000 0.5284
vn -0.8565 -0.0000 0.5162
vn -0.7187 -0.0000 0.6953
vn -0.9633 -0.0000 0.2685
vn -0.3516 -0.0000 0.9361
vn -0.5943 -0.0000 0.8043
vn -0.9996 -0.0000 0.0275
vn -0.7799 -0.0000 0.6259
vn -0.9787 -0.0000 -0.2055
vn -0.9188 -0.0000 0.3948
vn 0.6273 -0.0000 0.7788
vn -0.9896 -0.0000 0.1441
vn -0.8389 -0.0000 -0.5443
vn -0.8897 -0.0000 -0.4565
vn -0.9964 -0.0000 -0.0845
vn -0.7881 -0.0000 -0.6156
vn -0.7256 -0.0000 -0.6881
vn -0.9434 -0.0000 -0.3317
vn -0.6534 -0.0000 -0.7570
vn -0.5756 -0.0000 -0.8178
vn -0.8196 -0.0000 -0.5730
vn -0.4971 -0.0000 -0.8677
vn -0.7431 -0.0000 -0.6692
vn 0.6485 -0.0000 -0.7612
vn 0.7050 -0.0000 -0.7092
vn 0.7566 -0.0000 -0.6539
vn 0.8018 -0.0000 -0.5976
vn -0.9232 -0.0000 -0.3843
vn 0.0918 -0.0000 0.9958
vn 0.8711 -0.0000 -0.4910
vn 0.0010 -0.0000 -1.0000
vn 0.5422 -0.0000 -0.8402
vn -0.1585 -0.0000 -0.9874
vn -0.9232 -0.0000 0.3844
vn -0.4232 -0.0000 -0.9060
vn 0.9232 -0.0000 -0.3843
vn -0.6505 -0.0000 -0.7595
vn -0.8176 -0.0000 -0.5758
vn 0.4213 -0.0000 0.9069
vn 0.0011 -0.0000 -1.0000
vn -0.9409 -0.0000 -0.3387
vn 0.9896 -0.0000 -0.1440
vn -0.9962 -0.0000 -0.0876
vn -0.9890 -0.0000 0.1479
vn -0.8359 -0.0000 0.5490
vn -0.9171 -0.0000 0.3987
vn 0.7376 -0.0000 -0.6752
vn 0.5495 -0.0000 0.8355
vn -0.8151 -0.0000 0.5793
vn -0.7783 -0.0000 0.6279
vn -0.5959 -0.0000 0.8031
vn -0.7922 -0.0000 0.6102
vn -0.3552 -0.0000 0.9348
vn -0.0925 -0.0000 0.9957
vn 0.9232 -0.0000 0.3844
vn -0.7674 -0.0000 0.6412
vn -0.8078 -0.0000 0.5895
vn -0.7406 -0.0000 0.6720
vn -0.7119 -0.0000 0.7022
vn 0.6455 -0.0000 0.7638
vn -0.6782 -0.0000 0.7349
vn 0.8167 -0.0000 0.5771
vn -0.0305 -0.0000 -0.9995
vn 0.9414 -0.0000 0.3372
vn -0.2919 -0.0000 -0.9564
vn -0.5860 -0.0000 0.8103
vn 0.9962 -0.0000 0.0865
vn 0.6487 -0.0000 -0.7610
vn -0.5389 -0.0000 0.8424
vn 0.9889 -0.0000 -0.1488
vn -0.5446 -0.0000 -0.8387
vn -0.4925 -0.0000 0.8703
vn 0.7378 -0.0000 0.6750
vn -0.7385 -0.0000 -0.6743
vn -0.4478 -0.0000 0.8942
vn 0.9144 -0.0000 -0.4048
vn -0.8867 -0.0000 -0.4623
vn 0.7761 -0.0000 -0.6307
vn -0.9774 -0.0000 -0.2115
vn -0.9996 -0.0000 0.0285
vn -0.9620 -0.0000 0.2731
vn -0.8548 -0.0000 0.5189
vn -0.6929 -0.0000 0.7210
vn -0.4818 -0.0000 0.8763
vn 0.6437 -0.0000 0.7653
vn -0.2228 -0.0000 0.9749
vn 0.6521 -0.0000 0.7581
vn 0.0301 -0.0000 0.9995
vn 0.6607 -0.0000 0.7507
vn 0.8196 -0.0000 0.5729
vn -0.7073 -0.0000 0.7069
vn -0.5954 -0.0000 -0.8034
vn 0.5983 -0.0000 -0.8013
vn -0.7181 -0.0000 0.6959
vn 0.4417 -0.0000 -0.8972
vn -0.3524 -0.0000 -0.9359
vn -0.7119 -0.0000 0.7023
vn 0.7356 -0.0000 0.6774
vn 0.8869 -0.0000 0.4619
vn -0.7183 -0.0000 0.6957
vn 0.5440 -0.0000 -0.8391
vn 0.9777 -0.0000 0.2098
vn -0.0911 -0.0000 -0.9958
vn 0.9996 -0.0000 -0.0283
vn -0.7207 -0.0000 0.6933
vn 0.9610 -0.0000 -0.2767
vn 0.8511 -0.0000 -0.5249
vn -0.7186 -0.0000 0.6954
vn 0.6948 -0.0000 -0.7192
vn 0.4198 -0.0000 -0.9076
vn -0.6905 -0.0000 -0.7233
vn 0.0305 -0.0000 -0.9995
vn -0.6941 -0.0000 -0.7198
vn 0.8196 -0.0000 -0.5730
vn -0.4798 -0.0000 -0.8774
vn 0.9434 -0.0000 -0.3317
vn 0.6478 -0.0000 0.7618
vn -0.2202 -0.0000 -0.9754
vn 0.4524 -0.0000 -0.8918
vn 0.0297 -0.0000 -0.9996
vn 0.4436 -0.0000 0.8962
vn 0.4208 -0.0000 -0.9071
vn 0.9964 -0.0000 -0.0845
vn 0.2881 -0.0000 -0.9576
vn 0.8399 -0.0000 -0.5427
vn 0.4972 -0.0000 -0.8676
vn 0.6479 -0.0000 0.7617
vn 0.7798 -0.0000 0.6260
vn 0.8897 -0.0000 -0.4565
vn 0.4665 -0.0000 0.8845
vn 0.5965 -0.0000 0.8026
vn 0.4845 -0.0000 -0.8748
vn 0.3541 -0.0000 0.9352
vn 0.9787 -0.0000 -0.2055
vn 0.4898 -0.0000 0.8718
vn 0.3577 -0.0000 -0.9338
vn 0.6986 -0.0000 0.7155
vn -0.6327 -0.0000 0.7744
vn 0.7382 -0.0000 0.6746
vn 0.7745 -0.0000 0.6326
vn 0.8071 -0.0000 0.5905
vn -0.1551 -0.0000 0.9879
vn 0.8565 -0.0000 0.5162
vn 0.8359 -0.0000 0.5488
vn -0.4161 -0.0000 0.9093
vn 0.6233 -0.0000 0.7820
vn 0.8611 -0.0000 0.5084
vn -0.6463 -0.0000 0.7631
vn 0.6946 -0.0000 0.7194
vn 0.6354 -0.0000 0.7722
vn -0.8197 -0.0000 0.5728
vn 0.6191 -0.0000 -0.7853
vn 0.2217 -0.0000 0.9751
vn 0.5135 -0.0000 0.8581
vn 0.6773 -0.0000 -0.7358
vn -0.9433 -0.0000 0.3318
vn -0.0299 -0.0000 0.9996
vn 0.7315 -0.0000 -0.6818
vn -0.2860 -0.0000 0.9582
vn 0.7800 -0.0000 -0.6257
vn 0.8217 -0.0000 -0.5699
vn -0.9964 -0.0000 0.0846
vn 0.2880 -0.0000 0.9576
vn -0.8150 -0.0000 -0.5795
vn 0.8564 -0.0000 -0.5164
vn -0.5381 -0.0000 0.8429
vn -0.9896 -0.0000 -0.1440
vn -0.7378 -0.0000 0.6750
vn -0.7582 -0.0000 -0.6520
vn -0.9188 -0.0000 -0.3947
vn -0.8897 -0.0000 0.4566
vn 0.9996 -0.0000 0.0274
vn -0.7797 -0.0000 -0.6261
vn -0.6149 -0.0000 -0.7886
vn -0.7376 -0.0000 -0.6752
vn -0.5361 -0.0000 -0.8442
vn -0.9786 -0.0000 0.2056
vn 0.3546 -0.0000 -0.9350
vn 0.2247 -0.0000 -0.9744
vn 0.0934 -0.0000 -0.9956
vn -0.9996 -0.0000 -0.0274
vn -0.8257 -0.0000 0.5641
vn -0.9633 -0.0000 -0.2683
vn 0.5375 -0.0000 0.8433
vn -0.8039 -0.0000 0.5947
vn -0.7801 -0.0000 0.6257
vn 0.5386 -0.0000 0.8426
vn -0.8565 -0.0000 -0.5162
vn 0.1563 -0.0000 0.9877
vn -0.7542 -0.0000 0.6566
vn 0.0299 -0.0000 0.9996
vn 0.9633 -0.0000 0.2684
vn 0.4174 -0.0000 0.9087
vn 0.4324 -0.0000 0.9017
vn -0.7265 -0.0000 0.6872
vn -0.2250 -0.0000 -0.9744
vn 0.4550 -0.0000 0.8905
vn -0.6970 -0.0000 0.7171
vn -0.4856 -0.0000 -0.8742
vn 0.4781 -0.0000 0.8783
vn -0.6965 -0.0000 -0.7175
vn 0.9896 -0.0000 0.1440
vn 0.5016 -0.0000 0.8651
vn -0.6557 -0.0000 0.7550
vn -0.8538 -0.0000 -0.5207
vn 0.5255 -0.0000 0.8508
vn -0.6095 -0.0000 0.7928
vn -0.9614 -0.0000 -0.2751
vn -0.0934 -0.0000 -0.9956
vn 0.6395 -0.0000 0.7688
vn -0.5624 -0.0000 0.8269
vn -0.9996 -0.0000 -0.0285
vn -0.3583 -0.0000 -0.9336
vn -0.5156 -0.0000 0.8568
vn -0.9777 -0.0000 0.2101
vn -0.5998 -0.0000 -0.8002
vn -0.4699 -0.0000 0.8827
vn -0.8880 -0.0000 0.4599
vn 0.9188 -0.0000 0.3948
vn -0.7361 -0.0000 0.6769
vn -0.7790 -0.0000 -0.6271
vn -0.4262 -0.0000 0.9046
vn -0.5408 -0.0000 0.8412
vn -0.9159 -0.0000 -0.4014
vn -0.2892 -0.0000 0.9573
vn -0.9889 -0.0000 -0.1487
vn -0.0302 -0.0000 0.9995
vn -0.9962 -0.0000 0.0872
vn -0.9418 -0.0000 0.3362
vn -0.8181 -0.0000 0.5751
vn 0.8077 -0.0000 -0.5895
vn -0.6467 -0.0000 0.7628
vn -0.4197 -0.0000 0.9077
vn 0.6313 -0.0000 0.7755
vn -0.1570 -0.0000 0.9876
vn 0.4794 -0.0000 0.8776
vn 0.0922 -0.0000 0.9957
vn 0.6925 -0.0000 0.7214
vn 0.8535 -0.0000 0.5211
vn 0.3531 -0.0000 0.9356
vn 0.9619 -0.0000 0.2734
vn 0.9996 -0.0000 0.0282
vn 0.4745 -0.0000 -0.8803
vn 0.9772 -0.0000 -0.2122
vn 0.5941 -0.0000 0.8044
vn 0.8846 -0.0000 -0.4663
vn 0.7771 -0.0000 0.6293
vn 0.7361 -0.0000 -0.6769
vn 0.9164 -0.0000 0.4003
vn -0.7195 -0.0000 0.6945
vn 0.5434 -0.0000 -0.8395
vn 0.9891 -0.0000 0.1473
vt 0.181818 0.000000
vt 0.090909 0.000000
vt 0.000000 0.000000
vt 0.818182 0.000000
vt 0.636364 0.000000
vt 0.727273 0.000000
vt 0.909091 0.000000
vt 1.000000 0.000000
vt 0.363636 0.000000
vt 0.454545 0.000000
vt 0.272727 0.000000
vt 0.545455 0.000000
vt 0.005236 0.000000
vt 0.497382 0.000000
vt 0.010471 0.000000
vt 0.492147 0.000000
vt 0.015707 0.000000
vt 0.486911 0.000000
vt 0.020942 0.000000
vt 0.481675 0.000000
vt 0.026178 0.000000
vt 0.476440 0.000000
vt 0.031414 0.000000
vt 0.471204 0.000000
vt 0.036649 0.000000
vt 0.465969 0.000000
vt 0.041885 0.000000
vt 0.460733 0.000000
vt 0.047120 0.000000
vt 0.455497 0.000000
vt 0.052356 0.000000
vt 0.816754 0.000000
vt 0.450262 0.000000
vt 0.811518 0.000000
vt 0.821990 0.000000
vt 0.827225 0.000000
vt 0.806283 0.000000
vt 0.057592 0.000000
vt 0.445026 0.000000
vt 0.832461 0.000000
vt 0.801047 0.000000
vt 0.837696 0.000000
vt 0.795812 0.000000
vt 0.842932 0.000000
vt 0.790576 0.000000
vt 0.848168 0.000000
vt 0.785340 0.000000
vt 0.062827 0.000000
vt 0.439791 0.000000
vt 0.853403 0.000000
vt 0.780105 0.000000
vt 0.858639 0.000000
vt 0.774869 0.000000
vt 0.068063 0.000000
vt 0.434555 0.000000
vt 0.863874 0.000000
vt 0.769634 0.000000
vt 0.869110 0.000000
vt 0.764398 0.000000
vt 0.429319 0.000000
vt 0.073298 0.000000
vt 0.874346 0.000000
vt 0.759162 0.000000
vt 0.879581 0.000000
vt 0.753927 0.000000
vt 0.424084 0.000000
vt 0.078534 0.000000
vt 0.748691 0.000000
vt 0.884817 0.000000
vt 0.418848 0.000000
vt 0.083770 0.000000
vt 0.890052 0.000000
vt 0.743455 0.000000
vt 0.413613 0.000000
vt 0.089005 0.000000
vt 0.895288 0.000000
vt 0.738220 0.000000
vt 0.900524 0.000000
vt 0.732984 0.000000
vt 0.408377 0.000000
vt 0.094241 0.000000
vt 0.905759 0.000000
vt 0.727749 0.000000
vt 0.403141 0.000000
vt 0.099476 0.000000
vt 0.910995 0.000000
vt 0.722513 0.000000
vt 0.397906 0.000000
vt 0.104712 0.000000
vt 0.916230 0.000000
vt 0.717277 0.000000
vt 0.921466 0.000000
vt 0.712042 0.000000
vt 0.392670 0.000000
vt 0.109948 0.000000
vt 0.926702 0.000000
vt 0.706806 0.000000
vt 0.387435 0.000000
vt 0.115183 0.000000
vt 0.931937 0.000000
vt 0.701571 0.000000
vt 0.382199 0.000000
vt 0.120419 0.000000
vt 0.937173 0.000000
vt 0.696335 0.000000
vt 0.376963 0.000000
vt 0.125654 0.000000
vt 0.942408 0.000000
vt 0.691099 0.000000
vt 0.130890 0.000000
vt 0.685864 0.000000
vt 0.947644 0.000000
vt 0.371728 0.000000
vt 0.680628 0.000000
vt 0.952880 0.000000
vt 0.136126 0.000000
vt 0.366492 0.000000
vt 0.675393 0.000000
vt 0.958115 0.000000
vt 0.141361 0.000000
vt 0.361257 0.000000
vt 0.670157 0.000000
vt 0.963351 0.000000
vt 0.146597 0.000000
vt 0.356021 0.000000
vt 0.664921 0.000000
vt 0.968586 0.000000
vt 0.151832 0.000000
vt 0.659686 0.000000
vt 0.973822 0.000000
vt 0.350785 0.000000
vt 0.654450 0.000000
vt 0.979058 0.000000
vt 0.157068 0.000000
vt 0.345550 0.000000
vt 0.649215 0.000000
vt 0.984293 0.000000
vt 0.162304 0.000000
vt 0.340314 0.000000
vt 0.643979 0.000000
vt 0.989529 0.000000
vt 0.167539 0.000000
vt 0.335079 0.000000
vt 0.994764 0.000000
vt 0.638743 0.000000
vt 0.633508 0.000000
vt 0.172775 0.000000
vt 0.329843 0.000000
vt 0.502618 0.000000
vt 0.628272 0.000000
vt 0.178010 0.000000
vt 0.324607 0.000000
vt 0.623037 0.000000
vt 0.507853 0.000000
vt 0.513089 0.000000
vt 0.617801 0.000000
vt 0.183246 0.000000
vt 0.319372 0.000000
vt 0.518325 0.000000
vt 0.612565 0.000000
vt 0.188482 0.000000
vt 0.314136 0.000000
vt 0.523560 0.000000
vt 0.607330 0.000000
vt 0.528796 0.000000
vt 0.602094 0.000000
vt 0.193717 0.000000
vt 0.308901 0.000000
vt 0.534031 0.000000
vt 0.596859 0.000000
vt 0.539267 0.000000
vt 0.591623 0.000000
vt 0.198953 0.000000
vt 0.303665 0.000000
vt 0.544503 0.000000
vt 0.586387 0.000000
vt 0.549738 0.000000
vt 0.581152 0.000000
vt 0.554974 0.000000
vt 0.575916 0.000000
vt 0.560209 0.000000
vt 0.570681 0.000000
vt 0.204188 0.000000
vt 0.298429 0.000000
vt 0.565445 0.000000
vt 0.209424 0.000000
vt 0.293194 0.000000
vt 0.214660 0.000000
vt 0.287958 0.000000
vt 0.219895 0.000000
vt 0.282723 0.000000
vt 0.225131 0.000000
vt 0.277487 0.000000
vt 0.230366 0.000000
vt 0.272251 0.000000
vt 0.235602 0.000000
vt 0.267016 0.000000
vt 0.240838 0.000000
vt 0.261780 0.000000
vt 0.246073 0.000000
vt 0.256545 0.000000
vt 0.251309 0.000000
vt 0.285714 0.000000
vt 0.274725 0.000000
vt 0.263736 0.000000
vt 0.010989 0.000000
vt 0.967033 0.000000
vt 0.989011 0.000000
vt 0.252747 0.000000
vt 0.241758 0.000000
vt 0.230769 0.000000
vt 0.219780 0.000000
vt 0.208791 0.000000
vt 0.197802 0.000000
vt 0.186813 0.000000
vt 0.175824 0.000000
vt 0.164835 0.000000
vt 0.153846 0.000000
vt 0.142857 0.000000
vt 0.307692 0.000000
vt 0.131868 0.000000
vt 0.120879 0.000000
vt 0.109890 0.000000
vt 0.956044 0.000000
vt 0.978022 0.000000
vt 0.098901 0.000000
vt 0.945055 0.000000
vt 0.296703 0.000000
vt 0.318681 0.000000
vt 0.934066 0.000000
vt 0.087912 0.000000
vt 0.329670 0.000000
vt 0.923077 0.000000
vt 0.340659 0.000000
vt 0.076923 0.000000
vt 0.912088 0.000000
vt 0.351648 0.000000
vt 0.065934 0.000000
vt 0.362637 0.000000
vt 0.901099 0.000000
vt 0.373626 0.000000
vt 0.054945 0.000000
vt 0.384615 0.000000
vt 0.890110 0.000000
vt 0.395604 0.000000
vt 0.043956 0.000000
vt 0.406593 0.000000
vt 0.032967 0.000000
vt 0.879121 0.000000
vt 0.417582 0.000000
vt 0.428571 0.000000
vt 0.021978 0.000000
vt 0.439560 0.000000
vt 0.868132 0.000000
vt 0.450549 0.000000
vt 0.857143 0.000000
vt 0.461538 0.000000
vt 0.846154 0.000000
vt 0.472527 0.000000
vt 0.835165 0.000000
vt 0.824176 0.000000
vt 0.483516 0.000000
vt 0.813187 0.000000
vt 0.802198 0.000000
vt 0.494505 0.000000
vt 0.791209 0.000000
vt 0.780220 0.000000
vt 0.505495 0.000000
vt 0.769231 0.000000
vt 0.758242 0.000000
vt 0.747253 0.000000
vt 0.516484 0.000000
vt 0.736264 0.000000
vt 0.725275 0.000000
vt 0.527473 0.000000
vt 0.714286 0.000000
vt 0.703297 0.000000
vt 0.538462 0.000000
vt 0.692308 0.000000
vt 0.681319 0.000000
vt 0.670330 0.000000
vt 0.659341 0.000000
vt 0.549451 0.000000
vt 0.648352 0.000000
vt 0.637363 0.000000
vt 0.626374 0.000000
vt 0.560440 0.000000
vt 0.615385 0.000000
vt 0.604396 0.000000
vt 0.571429 0.000000
vt 0.593407 0.000000
vt 0.582418 0.000000
vt 0.495050 0.000000
vt 0.485149 0.000000
vt 0.475248 0.000000
vt 0.465347 0.000000
vt 0.247525 0.000000
vt 0.237624 0.000000
vt 0.227723 0.000000
vt 0.217822 0.000000
vt 0.207921 0.000000
vt 0.198020 0.000000
vt 0.188119 0.000000
vt 0.178218 0.000000
vt 0.168317 0.000000
vt 0.158416 0.000000
vt 0.148515 0.000000
vt 0.138614 0.000000
vt 0.128713 0.000000
vt 0.118812 0.000000
vt 0.108911 0.000000
vt 0.455446 0.000000
vt 0.445545 0.000000
vt 0.099010 0.000000
vt 0.257426 0.000000
vt 0.089109 0.000000
vt 0.435644 0.000000
vt 0.079208 0.000000
vt 0.267327 0.000000
vt 0.425743 0.000000
vt 0.069307 0.000000
vt 0.277228 0.000000
vt 0.059406 0.000000
vt 0.415842 0.000000
vt 0.287129 0.000000
vt 0.049505 0.000000
vt 0.039604 0.000000
vt 0.297030 0.000000
vt 0.405941 0.000000
vt 0.029703 0.000000
vt 0.306931 0.000000
vt 0.019802 0.000000
vt 0.396040 0.000000
vt 0.009901 0.000000
vt 0.316832 0.000000
vt 0.891089 0.000000
vt 0.900990 0.000000
vt 0.326733 0.000000
vt 0.386139 0.000000
vt 0.881188 0.000000
vt 0.910891 0.000000
vt 0.920792 0.000000
vt 0.930693 0.000000
vt 0.940594 0.000000
vt 0.950495 0.000000
vt 0.960396 0.000000
vt 0.970297 0.000000
vt 0.980198 0.000000
vt 0.990099 0.000000
vt 0.871287 0.000000
vt 0.861386 0.000000
vt 0.851485 0.000000
vt 0.841584 0.000000
vt 0.831683 0.000000
vt 0.821782 0.000000
vt 0.336634 0.000000
vt 0.811881 0.000000
vt 0.801980 0.000000
vt 0.792079 0.000000
vt 0.782178 0.000000
vt 0.376238 0.000000
vt 0.772277 0.000000
vt 0.633663 0.000000
vt 0.762376 0.000000
vt 0.346535 0.000000
vt 0.366337 0.000000
vt 0.356436 0.000000
vt 0.623762 0.000000
vt 0.643564 0.000000
vt 0.514852 0.000000
vt 0.653465 0.000000
vt 0.613861 0.000000
vt 0.603960 0.000000
vt 0.594059 0.000000
vt 0.663366 0.000000
vt 0.584158 0.000000
vt 0.574257 0.000000
vt 0.564356 0.000000
vt 0.554455 0.000000
vt 0.673267 0.000000
vt 0.544554 0.000000
vt 0.534653 0.000000
vt 0.524752 0.000000
vt 0.504951 0.000000
vt 0.683168 0.000000
vt 0.693069 0.000000
vt 0.702970 0.000000
vt 0.712871 0.000000
vt 0.722772 0.000000
vt 0.732673 0.000000
vt 0.742574 0.000000
vt 0.752475 0.000000
vt 0.333333 0.000000
vt 0.666667 0.000000
s 0
usemtl Material
f 3/1/1 2/2/1 1/3/1
f 3/1/1 1/3/1 10/4/1
f 10/4/1 1/3/1 8/5/1
f 3/1/1 10/4/1 9/6/1
f 11/7/1 10/4/1 8/5/1
f 3/1/1 9/6/1 12/8/1
f 3/1/1 12/8/1 5/9/1
f 5/9/1 12/8/1 11/7/1
f 5/9/1 11/7/1 6/10/1
f 6/10/1 11/7/1 8/5/1
f 3/1/1 5/9/1 4/11/1
f 7/12/1 6/10/1 8/5/1
f 14/13/1 13/3/1 108/14/1
f 15/15/1 14/13/1 108/14/1
f 15/15/1 108/14/1 107/16/1
f 16/17/1 15/15/1 107/16/1
f 16/17/1 107/16/1 106/18/1
f 17/19/1 16/17/1 106/18/1
f 17/19/1 106/18/1 105/20/1
f 18/21/1 17/19/1 105/20/1
f 18/21/1 105/20/1 104/22/1
f 19/23/1 18/21/1 104/22/1
f 19/23/1 104/22/1 103/24/1
f 20/25/1 19/23/1 103/24/1
f 20/25/1 103/24/1 102/26/1
f 21/27/1 20/25/1 102/26/1
f 21/27/1 102/26/1 101/28/1
f 22/29/1 21/27/1 101/28/1
f 22/29/1 101/28/1 100/30/1
f 23/31/1 22/29/1 100/30/1
f 23/31/1 100/30/1 169/32/1
f 169/32/1 100/30/1 99/33/1
f 23/31/1 169/32/1 168/34/1
f 170/35/1 169/32/1 99/33/1
f 171/36/1 170/35/1 99/33/1
f 23/31/1 168/34/1 167/37/1
f 24/38/1 23/31/1 167/37/1
f 171/36/1 99/33/1 98/39/1
f 172/40/1 171/36/1 98/39/1
f 24/38/1 167/37/1 166/41/1
f 173/42/1 172/40/1 98/39/1
f 24/38/1 166/41/1 165/43/1
f 174/44/1 173/42/1 98/39/1
f 24/38/1 165/43/1 164/45/1
f 175/46/1 174/44/1 98/39/1
f 24/38/1 164/45/1 163/47/1
f 25/48/1 24/38/1 163/47/1
f 175/46/1 98/39/1 97/49/1
f 176/50/1 175/46/1 97/49/1
f 25/48/1 163/47/1 162/51/1
f 177/52/1 176/50/1 97/49/1
f 25/48/1 162/51/1 161/53/1
f 26/54/1 25/48/1 161/53/1
f 177/52/1 97/49/1 96/55/1
f 178/56/1 177/52/1 96/55/1
f 26/54/1 161/53/1 160/57/1
f 179/58/1 178/56/1 96/55/1
f 26/54/1 160/57/1 159/59/1
f 179/58/1 96/55/1 95/60/1
f 27/61/1 26/54/1 159/59/1
f 180/62/1 179/58/1 95/60/1
f 27/61/1 159/59/1 158/63/1
f 181/64/1 180/62/1 95/60/1
f 27/61/1 158/63/1 157/65/1
f 181/64/1 95/60/1 94/66/1
f 28/67/1 27/61/1 157/65/1
f 28/67/1 157/65/1 156/68/1
f 182/69/1 181/64/1 94/66/1
f 182/69/1 94/66/1 93/70/1
f 29/71/1 28/67/1 156/68/1
f 183/72/1 182/69/1 93/70/1
f 29/71/1 156/68/1 155/73/1
f 183/72/1 93/70/1 92/74/1
f 30/75/1 29/71/1 155/73/1
f 184/76/1 183/72/1 92/74/1
f 30/75/1 155/73/1 154/77/1
f 185/78/1 184/76/1 92/74/1
f 30/75/1 154/77/1 153/79/1
f 185/78/1 92/74/1 91/80/1
f 31/81/1 30/75/1 153/79/1
f 186/82/1 185/78/1 91/80/1
f 31/81/1 153/79/1 152/83/1
f 186/82/1 91/80/1 90/84/1
f 32/85/1 31/81/1 152/83/1
f 187/86/1 186/82/1 90/84/1
f 32/85/1 152/83/1 151/87/1
f 187/86/1 90/84/1 89/88/1
f 33/89/1 32/85/1 151/87/1
f 188/90/1 187/86/1 89/88/1
f 33/89/1 151/87/1 150/91/1
f 189/92/1 188/90/1 89/88/1
f 33/89/1 150/91/1 149/93/1
f 189/92/1 89/88/1 88/94/1
f 34/95/1 33/89/1 149/93/1
f 190/96/1 189/92/1 88/94/1
f 34/95/1 149/93/1 148/97/1
f 190/96/1 88/94/1 87/98/1
f 35/99/1 34/95/1 148/97/1
f 191/100/1 190/96/1 87/98/1
f 35/99/1 148/97/1 147/101/1
f 191/100/1 87/98/1 86/102/1
f 36/103/1 35/99/1 147/101/1
f 192/104/1 191/100/1 86/102/1
f 36/103/1 147/101/1 146/105/1
f 192/104/1 86/102/1 85/106/1
f 37/107/1 36/103/1 146/105/1
f 193/108/1 192/104/1 85/106/1
f 37/107/1 146/105/1 145/109/1
f 38/110/1 37/107/1 145/109/1
f 38/110/1 145/109/1 144/111/1
f 194/112/1 193/108/1 85/106/1
f 194/112/1 85/106/1 84/113/1
f 38/110/1 144/111/1 143/114/1
f 195/115/1 194/112/1 84/113/1
f 39/116/1 38/110/1 143/114/1
f 195/115/1 84/113/1 83/117/1
f 39/116/1 143/114/1 142/118/1
f 196/119/1 195/115/1 83/117/1
f 40/120/1 39/116/1 142/118/1
f 196/119/1 83/117/1 82/121/1
f 40/120/1 142/118/1 141/122/1
f 197/123/1 196/119/1 82/121/1
f 41/124/1 40/120/1 141/122/1
f 197/123/1 82/121/1 81/125/1
f 41/124/1 141/122/1 140/126/1
f 198/127/1 197/123/1 81/125/1
f 42/128/1 41/124/1 140/126/1
f 42/128/1 140/126/1 139/129/1
f 199/130/1 198/127/1 81/125/1
f 199/130/1 81/125/1 80/131/1
f 42/128/1 139/129/1 138/132/1
f 200/133/1 199/130/1 80/131/1
f 43/134/1 42/128/1 138/132/1
f 200/133/1 80/131/1 79/135/1
f 43/134/1 138/132/1 137/136/1
f 201/137/1 200/133/1 79/135/1
f 44/138/1 43/134/1 137/136/1
f 201/137/1 79/135/1 78/139/1
f 44/138/1 137/136/1 136/140/1
f 202/141/1 201/137/1 78/139/1
f 45/142/1 44/138/1 136/140/1
f 202/141/1 78/139/1 77/143/1
f 203/144/1 202/141/1 77/143/1
f 45/142/1 136/140/1 135/145/1
f 204/8/1 203/144/1 77/143/1
f 45/142/1 135/145/1 134/146/1
f 46/147/1 45/142/1 134/146/1
f 204/8/1 77/143/1 76/148/1
f 109/149/1 204/8/1 76/148/1
f 46/147/1 134/146/1 133/150/1
f 47/151/1 46/147/1 133/150/1
f 109/149/1 76/148/1 75/152/1
f 47/151/1 133/150/1 132/153/1
f 110/154/1 109/149/1 75/152/1
f 111/155/1 110/154/1 75/152/1
f 47/151/1 132/153/1 131/156/1
f 48/157/1 47/151/1 131/156/1
f 111/155/1 75/152/1 74/158/1
f 112/159/1 111/155/1 74/158/1
f 48/157/1 131/156/1 130/160/1
f 49/161/1 48/157/1 130/160/1
f 112/159/1 74/158/1 73/162/1
f 113/163/1 112/159/1 73/162/1
f 49/161/1 130/160/1 129/164/1
f 114/165/1 113/163/1 73/162/1
f 49/161/1 129/164/1 128/166/1
f 50/167/1 49/161/1 128/166/1
f 114/165/1 73/162/1 72/168/1
f 115/169/1 114/165/1 72/168/1
f 50/167/1 128/166/1 127/170/1
f 116/171/1 115/169/1 72/168/1
f 50/167/1 127/170/1 126/172/1
f 51/173/1 50/167/1 126/172/1
f 116/171/1 72/168/1 71/174/1
f 117/175/1 116/171/1 71/174/1
f 51/173/1 126/172/1 125/176/1
f 118/177/1 117/175/1 71/174/1
f 51/173/1 125/176/1 124/178/1
f 119/179/1 118/177/1 71/174/1
f 51/173/1 124/178/1 123/180/1
f 120/181/1 119/179/1 71/174/1
f 51/173/1 123/180/1 122/182/1
f 52/183/1 51/173/1 122/182/1
f 120/181/1 71/174/1 70/184/1
f 121/185/1 120/181/1 70/184/1
f 52/183/1 122/182/1 121/185/1
f 52/183/1 121/185/1 70/184/1
f 53/186/1 52/183/1 70/184/1
f 53/186/1 70/184/1 69/187/1
f 54/188/1 53/186/1 69/187/1
f 54/188/1 69/187/1 68/189/1
f 55/190/1 54/188/1 68/189/1
f 55/190/1 68/189/1 67/191/1
f 56/192/1 55/190/1 67/191/1
f 56/192/1 67/191/1 66/193/1
f 57/194/1 56/192/1 66/193/1
f 57/194/1 66/193/1 65/195/1
f 58/196/1 57/194/1 65/195/1
f 58/196/1 65/195/1 64/197/1
f 59/198/1 58/196/1 64/197/1
f 59/198/1 64/197/1 63/199/1
f 60/200/1 59/198/1 63/199/1
f 60/200/1 63/199/1 62/201/1
f 61/202/1 60/200/1 62/201/1
f 231/203/1 230/204/1 229/205/1
f 206/206/1 205/3/1 296/8/1
f 206/206/1 296/8/1 293/207/1
f 293/207/1 296/8/1 295/208/1
f 231/203/1 229/205/1 228/209/1
f 231/203/1 228/209/1 227/210/1
f 231/203/1 227/210/1 226/211/1
f 231/203/1 226/211/1 225/212/1
f 231/203/1 225/212/1 224/213/1
f 231/203/1 224/213/1 223/214/1
f 231/203/1 223/214/1 222/215/1
f 231/203/1 222/215/1 221/216/1
f 231/203/1 221/216/1 220/217/1
f 231/203/1 220/217/1 219/218/1
f 231/203/1 219/218/1 218/219/1
f 231/203/1 218/219/1 233/220/1
f 233/220/1 218/219/1 217/221/1
f 233/220/1 217/221/1 216/222/1
f 233/220/1 216/222/1 215/223/1
f 206/206/1 293/207/1 292/224/1
f 294/225/1 293/207/1 295/208/1
f 233/220/1 215/223/1 214/226/1
f 206/206/1 292/224/1 291/227/1
f 231/203/1 233/220/1 232/228/1
f 234/229/1 233/220/1 214/226/1
f 206/206/1 291/227/1 290/230/1
f 234/229/1 214/226/1 213/231/1
f 235/232/1 234/229/1 213/231/1
f 206/206/1 290/230/1 289/233/1
f 236/234/1 235/232/1 213/231/1
f 236/234/1 213/231/1 212/235/1
f 206/206/1 289/233/1 288/236/1
f 237/237/1 236/234/1 212/235/1
f 237/237/1 212/235/1 211/238/1
f 238/239/1 237/237/1 211/238/1
f 206/206/1 288/236/1 287/240/1
f 239/241/1 238/239/1 211/238/1
f 239/241/1 211/238/1 210/242/1
f 240/243/1 239/241/1 210/242/1
f 206/206/1 287/240/1 286/244/1
f 241/245/1 240/243/1 210/242/1
f 241/245/1 210/242/1 209/246/1
f 242/247/1 241/245/1 209/246/1
f 242/247/1 209/246/1 208/248/1
f 206/206/1 286/244/1 285/249/1
f 243/250/1 242/247/1 208/248/1
f 244/251/1 243/250/1 208/248/1
f 244/251/1 208/248/1 207/252/1
f 245/253/1 244/251/1 207/252/1
f 206/206/1 285/249/1 284/254/1
f 245/253/1 207/252/1 206/206/1
f 246/255/1 245/253/1 206/206/1
f 206/206/1 284/254/1 283/256/1
f 246/255/1 206/206/1 283/256/1
f 247/257/1 246/255/1 283/256/1
f 247/257/1 283/256/1 282/258/1
f 248/259/1 247/257/1 282/258/1
f 248/259/1 282/258/1 281/260/1
f 248/259/1 281/260/1 280/261/1
f 249/262/1 248/259/1 280/261/1
f 249/262/1 280/261/1 279/263/1
f 249/262/1 279/263/1 278/264/1
f 250/265/1 249/262/1 278/264/1
f 250/265/1 278/264/1 277/266/1
f 250/265/1 277/266/1 276/267/1
f 251/268/1 250/265/1 276/267/1
f 251/268/1 276/267/1 275/269/1
f 251/268/1 275/269/1 274/270/1
f 251/268/1 274/270/1 273/271/1
f 252/272/1 251/268/1 273/271/1
f 252/272/1 273/271/1 272/273/1
f 252/272/1 272/273/1 271/274/1
f 253/275/1 252/272/1 271/274/1
f 253/275/1 271/274/1 270/276/1
f 253/275/1 270/276/1 269/277/1
f 254/278/1 253/275/1 269/277/1
f 254/278/1 269/277/1 268/279/1
f 254/278/1 268/279/1 267/280/1
f 254/278/1 267/280/1 266/281/1
f 254/278/1 266/281/1 265/282/1
f 255/283/1 254/278/1 265/282/1
f 255/283/1 265/282/1 264/284/1
f 255/283/1 264/284/1 263/285/1
f 255/283/1 263/285/1 262/286/1
f 256/287/1 255/283/1 262/286/1
f 256/287/1 262/286/1 261/288/1
f 256/287/1 261/288/1 260/289/1
f 257/290/1 256/287/1 260/289/1
f 257/290/2 260/289/2 259/291/2
f 257/290/3 259/291/3 258/292/3
f 347/293/1 346/294/1 345/295/1
f 347/293/1 345/295/1 344/296/1
f 322/297/1 321/298/1 320/299/1
f 322/297/1 320/299/1 319/300/1
f 322/297/1 319/300/1 318/301/1
f 322/297/1 318/301/1 317/302/1
f 322/297/1 317/302/1 316/303/1
f 322/297/1 316/303/1 315/304/1
f 322/297/1 315/304/1 314/305/1
f 322/297/1 314/305/1 313/306/1
f 322/297/1 313/306/1 312/307/1
f 322/297/1 312/307/1 311/308/1
f 322/297/1 311/308/1 310/309/1
f 322/297/1 310/309/1 309/310/1
f 322/297/1 309/310/1 308/311/1
f 347/293/1 344/296/1 343/312/1
f 347/293/1 343/312/1 342/313/1
f 322/297/1 308/311/1 307/314/1
f 323/315/1 322/297/1 307/314/1
f 323/315/1 307/314/1 306/316/1
f 347/293/1 342/313/1 341/317/1
f 323/315/1 306/316/1 305/318/1
f 324/319/1 323/315/1 305/318/1
f 347/293/1 341/317/1 340/320/1
f 324/319/1 305/318/1 304/321/1
f 325/322/1 324/319/1 304/321/1
f 325/322/1 304/321/1 303/323/1
f 347/293/1 340/320/1 339/324/1
f 326/325/1 325/322/1 303/323/1
f 326/325/1 303/323/1 302/326/1
f 326/325/1 302/326/1 301/327/1
f 327/328/1 326/325/1 301/327/1
f 347/293/1 339/324/1 338/329/1
f 327/328/1 301/327/1 300/330/1
f 328/331/1 327/328/1 300/330/1
f 328/331/1 300/330/1 299/332/1
f 347/293/1 338/329/1 337/333/1
f 328/331/1 299/332/1 298/334/1
f 329/335/1 328/331/1 298/334/1
f 329/335/1 298/334/1 387/336/1
f 387/336/1 298/334/1 388/337/1
f 388/337/1 298/334/1 297/3/1
f 330/338/1 329/335/1 387/336/1
f 347/293/1 337/333/1 336/339/1
f 330/338/1 387/336/1 386/340/1
f 389/341/4 388/337/4 297/3/4
f 390/342/1 389/341/1 297/3/1
f 391/343/1 390/342/1 392/344/1
f 392/344/1 390/342/1 297/3/1
f 393/345/1 392/344/1 297/3/1
f 394/346/1 393/345/1 297/3/1
f 395/347/5 394/346/5 297/3/5
f 396/348/1 395/347/1 297/3/1
f 397/349/1 396/348/1 297/3/1
f 398/8/1 397/349/1 297/3/1
f 330/338/1 386/340/1 385/350/1
f 330/338/1 385/350/1 384/351/1
f 330/338/1 384/351/1 383/352/1
f 330/338/1 383/352/1 382/353/1
f 330/338/1 382/353/1 381/354/1
f 330/338/1 381/354/1 380/355/1
f 331/356/1 330/338/1 380/355/1
f 331/356/1 380/355/1 379/357/1
f 331/356/1 379/357/1 378/358/1
f 331/356/1 378/358/1 377/359/1
f 331/356/1 377/359/1 376/360/1
f 347/293/1 336/339/1 335/361/1
f 331/356/1 376/360/1 375/362/1
f 331/356/1 375/362/1 361/363/1
f 361/363/1 375/362/1 374/364/1
f 332/365/1 331/356/1 361/363/1
f 347/293/1 335/361/1 334/366/1
f 333/367/1 332/365/1 361/363/1
f 347/293/1 334/366/1 333/367/1
f 333/367/1 361/363/1 360/368/1
f 362/369/1 361/363/1 374/364/1
f 347/293/1 333/367/1 349/370/1
f 349/370/1 333/367/1 360/368/1
f 363/371/1 362/369/1 374/364/1
f 349/370/1 360/368/1 359/372/1
f 349/370/1 359/372/1 358/373/1
f 349/370/1 358/373/1 357/374/1
f 364/375/1 363/371/1 374/364/1
f 349/370/1 357/374/1 356/376/1
f 349/370/1 356/376/1 355/377/1
f 349/370/1 355/377/1 354/378/1
f 349/370/1 354/378/1 353/379/1
f 365/380/1 364/375/1 374/364/1
f 349/370/1 353/379/1 352/381/1
f 349/370/1 352/381/1 351/382/1
f 349/370/1 351/382/1 350/383/1
f 347/293/1 349/370/1 348/384/1
f 366/385/1 365/380/1 374/364/1
f 367/386/1 366/385/1 374/364/1
f 368/387/1 367/386/1 374/364/1
f 369/388/1 368/387/1 374/364/1
f 370/389/1 369/388/1 374/364/1
f 371/390/1 370/389/1 374/364/1
f 372/391/1 371/390/1 374/364/1
f 373/392/1 372/391/1 374/364/1
f 399/3/1 400/393/1 401/394/1
f 399/3/1 401/394/1 402/8/1
f 405/1/6 403/3/6 404/2/6
f 405/1/6 412/4/6 403/3/6
f 412/4/6 410/5/6 403/3/6
f 405/1/6 411/6/6 412/4/6
f 413/7/6 410/5/6 412/4/6
f 405/1/6 414/8/6 411/6/6
f 405/1/6 407/9/6 414/8/6
f 407/9/6 413/7/6 414/8/6
f 407/9/6 408/10/6 413/7/6
f 408/10/6 410/5/6 413/7/6
f 405/1/6 406/11/6 407/9/6
f 409/12/6 410/5/6 408/10/6
f 416/13/6 510/14/6 415/3/6
f 417/15/6 510/14/6 416/13/6
f 417/15/6 509/16/6 510/14/6
f 418/17/6 509/16/6 417/15/6
f 418/17/6 508/18/6 509/16/6
f 419/19/6 508/18/6 418/17/6
f 419/19/6 507/20/6 508/18/6
f 420/21/6 507/20/6 419/19/6
f 420/21/6 506/22/6 507/20/6
f 421/23/6 506/22/6 420/21/6
f 421/23/6 505/24/6 506/22/6
f 422/25/6 505/24/6 421/23/6
f 422/25/6 504/26/6 505/24/6
f 423/27/6 504/26/6 422/25/6
f 423/27/6 503/28/6 504/26/6
f 424/29/6 503/28/6 423/27/6
f 424/29/6 502/30/6 503/28/6
f 425/31/6 502/30/6 424/29/6
f 425/31/6 571/32/6 502/30/6
f 571/32/6 501/33/6 502/30/6
f 425/31/6 570/34/6 571/32/6
f 572/35/6 501/33/6 571/32/6
f 573/36/6 501/33/6 572/35/6
f 425/31/6 569/37/6 570/34/6
f 426/38/6 569/37/6 425/31/6
f 573/36/6 500/39/6 501/33/6
f 574/40/6 500/39/6 573/36/6
f 426/38/6 568/41/6 569/37/6
f 575/42/6 500/39/6 574/40/6
f 426/38/6 567/43/6 568/41/6
f 576/44/6 500/39/6 575/42/6
f 426/38/6 566/45/6 567/43/6
f 577/46/6 500/39/6 576/44/6
f 426/38/6 565/47/6 566/45/6
f 427/48/6 565/47/6 426/38/6
f 577/46/6 499/49/6 500/39/6
f 578/50/6 499/49/6 577/46/6
f 427/48/6 564/51/6 565/47/6
f 579/52/6 499/49/6 578/50/6
f 427/48/6 563/53/6 564/51/6
f 428/54/6 563/53/6 427/48/6
f 579/52/6 498/55/6 499/49/6
f 580/56/6 498/55/6 579/52/6
f 428/54/6 562/57/6 563/53/6
f 581/58/6 498/55/6 580/56/6
f 428/54/6 561/59/6 562/57/6
f 581/58/6 497/60/6 498/55/6
f 429/61/6 561/59/6 428/54/6
f 582/62/6 497/60/6 581/58/6
f 429/61/6 560/63/6 561/59/6
f 583/64/6 497/60/6 582/62/6
f 429/61/6 559/65/6 560/63/6
f 583/64/6 496/66/6 497/60/6
f 430/67/6 559/65/6 429/61/6
f 430/67/6 558/68/6 559/65/6
f 584/69/6 496/66/6 583/64/6
f 584/69/6 495/70/6 496/66/6
f 431/71/6 558/68/6 430/67/6
f 585/72/6 495/70/6 584/69/6
f 431/71/6 557/73/6 558/68/6
f 585/72/6 494/74/6 495/70/6
f 432/75/6 557/73/6 431/71/6
f 586/76/6 494/74/6 585/72/6
f 432/75/6 556/77/6 557/73/6
f 587/78/6 494/74/6 586/76/6
f 432/75/6 555/79/6 556/77/6
f 587/78/6 493/80/6 494/74/6
f 433/81/6 555/79/6 432/75/6
f 588/82/6 493/80/6 587/78/6
f 433/81/6 554/83/6 555/79/6
f 588/82/6 492/84/6 493/80/6
f 434/85/6 554/83/6 433/81/6
f 589/86/6 492/84/6 588/82/6
f 434/85/6 553/87/6 554/83/6
f 589/86/6 491/88/6 492/84/6
f 435/89/6 553/87/6 434/85/6
f 590/90/6 491/88/6 589/86/6
f 435/89/6 552/91/6 553/87/6
f 591/92/6 491/88/6 590/90/6
f 435/89/6 551/93/6 552/91/6
f 591/92/6 490/94/6 491/88/6
f 436/95/6 551/93/6 435/89/6
f 592/96/6 490/94/6 591/92/6
f 436/95/6 550/97/6 551/93/6
f 592/96/6 489/98/6 490/94/6
f 437/99/6 550/97/6 436/95/6
f 593/100/6 489/98/6 592/96/6
f 437/99/6 549/101/6 550/97/6
f 593/100/6 488/102/6 489/98/6
f 438/103/6 549/101/6 437/99/6
f 594/104/6 488/102/6 593/100/6
f 438/103/6 548/105/6 549/101/6
f 594/104/6 487/106/6 488/102/6
f 439/107/6 548/105/6 438/103/6
f 595/108/6 487/106/6 594/104/6
f 439/107/6 547/109/6 548/105/6
f 440/110/6 547/109/6 439/107/6
f 440/110/6 546/111/6 547/109/6
f 596/112/6 487/106/6 595/108/6
f 596/112/6 486/113/6 487/106/6
f 440/110/6 545/114/6 546/111/6
f 597/115/6 486/113/6 596/112/6
f 441/116/6 545/114/6 440/110/6
f 597/115/6 485/117/6 486/113/6
f 441/116/6 544/118/6 545/114/6
f 598/119/6 485/117/6 597/115/6
f 442/120/6 544/118/6 441/116/6
f 598/119/6 484/121/6 485/117/6
f 442/120/6 543/122/6 544/118/6
f 599/123/6 484/121/6 598/119/6
f 443/124/6 543/122/6 442/120/6
f 599/123/6 483/125/6 484/121/6
f 443/124/6 542/126/6 543/122/6
f 600/127/6 483/125/6 599/123/6
f 444/128/6 542/126/6 443/124/6
f 444/128/6 541/129/6 542/126/6
f 601/130/6 483/125/6 600/127/6
f 601/130/6 482/131/6 483/125/6
f 444/128/6 540/132/6 541/129/6
f 602/133/6 482/131/6 601/130/6
f 445/134/6 540/132/6 444/128/6
f 602/133/6 481/135/6 482/131/6
f 445/134/6 539/136/6 540/132/6
f 603/137/6 481/135/6 602/133/6
f 446/138/6 539/136/6 445/134/6
f 603/137/6 480/139/6 481/135/6
f 446/138/6 538/140/6 539/136/6
f 604/141/6 480/139/6 603/137/6
f 447/142/6 538/140/6 446/138/6
f 604/141/6 479/143/6 480/139/6
f 605/144/6 479/143/6 604/141/6
f 447/142/6 537/145/6 538/140/6
f 606/8/6 479/143/6 605/144/6
f 447/142/6 536/146/6 537/145/6
f 448/147/6 536/146/6 447/142/6
f 606/8/6 478/148/6 479/143/6
f 511/149/6 478/148/6 606/8/6
f 448/147/6 535/150/6 536/146/6
f 449/151/6 535/150/6 448/147/6
f 511/149/6 477/152/6 478/148/6
f 449/151/6 534/153/6 535/150/6
f 512/154/6 477/152/6 511/149/6
f 513/155/6 477/152/6 512/154/6
f 449/151/6 533/156/6 534/153/6
f 450/157/6 533/156/6 449/151/6
f 513/155/6 476/158/6 477/152/6
f 514/159/6 476/158/6 513/155/6
f 450/157/6 532/160/6 533/156/6
f 451/161/6 532/160/6 450/157/6
f 514/159/6 475/162/6 476/158/6
f 515/163/6 475/162/6 514/159/6
f 451/161/6 531/164/6 532/160/6
f 516/165/6 475/162/6 515/163/6
f 451/161/6 530/166/6 531/164/6
f 452/167/6 530/166/6 451/161/6
f 516/165/6 474/168/6 475/162/6
f 517/169/6 474/168/6 516/165/6
f 452/167/6 529/170/6 530/166/6
f 518/171/6 474/168/6 517/169/6
f 452/167/6 528/172/6 529/170/6
f 453/173/6 528/172/6 452/167/6
f 518/171/6 473/174/6 474/168/6
f 519/175/6 473/174/6 518/171/6
f 453/173/6 527/176/6 528/172/6
f 520/177/6 473/174/6 519/175/6
f 453/173/6 526/178/6 527/176/6
f 521/179/6 473/174/6 520/177/6
f 453/173/6 525/180/6 526/178/6
f 522/181/6 473/174/6 521/179/6
f 453/173/6 524/182/6 525/180/6
f 454/183/6 524/182/6 453/173/6
f 522/181/6 472/184/6 473/174/6
f 523/185/6 472/184/6 522/181/6
f 454/183/6 523/185/6 524/182/6
f 454/183/6 472/184/6 523/185/6
f 455/186/6 472/184/6 454/183/6
f 455/186/6 471/187/6 472/184/6
f 456/188/6 471/187/6 455/186/6
f 456/188/6 470/189/6 471/187/6
f 457/190/6 470/189/6 456/188/6
f 457/190/6 469/191/6 470/189/6
f 458/192/6 469/191/6 457/190/6
f 458/192/6 468/193/6 469/191/6
f 459/194/6 468/193/6 458/192/6
f 459/194/6 467/195/6 468/193/6
f 460/196/6 467/195/6 459/194/6
f 460/196/6 466/197/6 467/195/6
f 461/198/6 466/197/6 460/196/6
f 461/198/6 465/199/6 466/197/6
f 462/200/6 465/199/6 461/198/6
f 462/200/6 464/201/6 465/199/6
f 463/202/6 464/201/6 462/200/6
f 633/203/6 631/205/6 632/204/6
f 608/206/6 698/8/6 607/3/6
f 608/206/6 695/207/6 698/8/6
f 695/207/6 697/208/6 698/8/6
f 633/203/6 630/209/6 631/205/6
f 633/203/6 629/210/6 630/209/6
f 633/203/6 628/211/6 629/210/6
f 633/203/6 627/212/6 628/211/6
f 633/203/6 626/213/6 627/212/6
f 633/203/6 625/214/6 626/213/6
f 633/203/6 624/215/6 625/214/6
f 633/203/6 623/216/6 624/215/6
f 633/203/6 622/217/6 623/216/6
f 633/203/6 621/218/6 622/217/6
f 633/203/6 620/219/6 621/218/6
f 633/203/6 635/220/6 620/219/6
f 635/220/6 619/221/6 620/219/6
f 635/220/6 618/222/6 619/221/6
f 635/220/6 617/223/6 618/222/6
f 608/206/6 694/224/6 695/207/6
f 696/225/6 697/208/6 695/207/6
f 635/220/6 616/226/6 617/223/6
f 608/206/6 693/227/6 694/224/6
f 633/203/6 634/228/6 635/220/6
f 636/229/6 616/226/6 635/220/6
f 608/206/6 692/230/6 693/227/6
f 636/229/6 615/231/6 616/226/6
f 637/232/6 615/231/6 636/229/6
f 608/206/6 691/233/6 692/230/6
f 638/234/6 615/231/6 637/232/6
f 638/234/6 614/235/6 615/231/6
f 608/206/6 690/236/6 691/233/6
f 639/237/6 614/235/6 638/234/6
f 639/237/6 613/238/6 614/235/6
f 640/239/6 613/238/6 639/237/6
f 608/206/6 689/240/6 690/236/6
f 641/241/6 613/238/6 640/239/6
f 641/241/6 612/242/6 613/238/6
f 642/243/6 612/242/6 641/241/6
f 608/206/6 688/244/6 689/240/6
f 643/245/6 612/242/6 642/243/6
f 643/245/6 611/246/6 612/242/6
f 644/247/6 611/246/6 643/245/6
f 644/247/6 610/248/6 611/246/6
f 608/206/6 687/249/6 688/244/6
f 645/250/6 610/248/6 644/247/6
f 646/251/6 610/248/6 645/250/6
f 646/251/6 609/252/6 610/248/6
f 647/253/6 609/252/6 646/251/6
f 608/206/6 686/254/6 687/249/6
f 647/253/6 608/206/6 609/252/6
f 648/255/6 608/206/6 647/253/6
f 608/206/6 685/256/6 686/254/6
f 648/255/6 685/256/6 608/206/6
f 649/257/6 685/256/6 648/255/6
f 649/257/6 684/258/6 685/256/6
f 650/259/6 684/258/6 649/257/6
f 650/259/6 683/260/6 684/258/6
f 650/259/6 682/261/6 683/260/6
f 651/262/6 682/261/6 650/259/6
f 651/262/6 681/263/6 682/261/6
f 651/262/6 680/264/6 681/263/6
f 652/265/6 680/264/6 651/262/6
f 652/265/6 679/266/6 680/264/6
f 652/265/6 678/267/6 679/266/6
f 653/268/6 678/267/6 652/265/6
f 653/268/6 677/269/6 678/267/6
f 653/268/6 676/270/6 677/269/6
f 653/268/6 675/271/6 676/270/6
f 654/272/6 675/271/6 653/268/6
f 654/272/6 674/273/6 675/271/6
f 654/272/6 673/274/6 674/273/6
f 655/275/6 673/274/6 654/272/6
f 655/275/6 672/276/6 673/274/6
f 655/275/6 671/277/6 672/276/6
f 656/278/6 671/277/6 655/275/6
f 656/278/6 670/279/6 671/277/6
f 656/278/6 669/280/6 670/279/6
f 656/278/6 668/281/6 669/280/6
f 656/278/6 667/282/6 668/281/6
f 657/283/6 667/282/6 656/278/6
f 657/283/6 666/284/6 667/282/6
f 657/283/6 665/285/6 666/284/6
f 657/283/6 664/286/6 665/285/6
f 658/287/6 664/286/6 657/283/6
f 658/287/6 663/288/6 664/286/6
f 658/287/6 662/289/6 663/288/6
f 659/290/6 662/289/6 658/287/6
f 659/290/6 661/291/6 662/289/6
f 659/290/6 660/292/6 661/291/6
f 749/293/6 747/295/6 748/294/6
f 749/293/6 746/296/6 747/295/6
f 724/297/6 722/299/6 723/298/6
f 724/297/6 721/300/6 722/299/6
f 724/297/6 720/301/6 721/300/6
f 724/297/6 719/302/6 720/301/6
f 724/297/6 718/303/6 719/302/6
f 724/297/6 717/304/6 718/303/6
f 724/297/6 716/305/6 717/304/6
f 724/297/6 715/306/6 716/305/6
f 724/297/6 714/307/6 715/306/6
f 724/297/6 713/308/6 714/307/6
f 724/297/6 712/309/6 713/308/6
f 724/297/6 711/310/6 712/309/6
f 724/297/6 710/311/6 711/310/6
f 749/293/6 745/312/6 746/296/6
f 749/293/6 744/313/6 745/312/6
f 724/297/6 709/314/6 710/311/6
f 725/315/6 709/314/6 724/297/6
f 725/315/6 708/316/6 709/314/6
f 749/293/6 743/317/6 744/313/6
f 725/315/6 707/318/6 708/316/6
f 726/319/6 707/318/6 725/315/6
f 749/293/6 742/320/6 743/317/6
f 726/319/6 706/321/6 707/318/6
f 727/322/6 706/321/6 726/319/6
f 727/322/6 705/323/6 706/321/6
f 749/293/6 741/324/6 742/320/6
f 728/325/6 705/323/6 727/322/6
f 728/325/6 704/326/6 705/323/6
f 728/325/6 703/327/6 704/326/6
f 729/328/6 703/327/6 728/325/6
f 749/293/6 740/329/6 741/324/6
f 729/328/6 702/330/6 703/327/6
f 730/331/6 702/330/6 729/328/6
f 730/331/6 701/332/6 702/330/6
f 749/293/6 739/333/6 740/329/6
f 730/331/6 700/334/6 701/332/6
f 731/335/6 700/334/6 730/331/6
f 731/335/6 789/336/6 700/334/6
f 789/336/6 790/337/6 700/334/6
f 790/337/6 699/3/6 700/334/6
f 732/338/6 789/336/6 731/335/6
f 749/293/6 738/339/6 739/333/6
f 732/338/6 788/340/6 789/336/6
f 791/341/6 699/3/6 790/337/6
f 792/342/7 699/3/7 791/341/7
f 793/343/8 794/344/8 792/342/8
f 794/344/6 699/3/6 792/342/6
f 795/345/6 699/3/6 794/344/6
f 796/346/6 699/3/6 795/345/6
f 797/347/6 699/3/6 796/346/6
f 798/348/6 699/3/6 797/347/6
f 799/349/6 699/3/6 798/348/6
f 800/8/6 699/3/6 799/349/6
f 732/338/6 787/350/6 788/340/6
f 732/338/6 786/351/6 787/350/6
f 732/338/6 785/352/6 786/351/6
f 732/338/6 784/353/6 785/352/6
f 732/338/6 783/354/6 784/353/6
f 732/338/6 782/355/6 783/354/6
f 733/356/6 782/355/6 732/338/6
f 733/356/6 781/357/6 782/355/6
f 733/356/6 780/358/6 781/357/6
f 733/356/6 779/359/6 780/358/6
f 733/356/6 778/360/6 779/359/6
f 749/293/6 737/361/6 738/339/6
f 733/356/6 777/362/6 778/360/6
f 733/356/6 763/363/6 777/362/6
f 763/363/6 776/364/6 777/362/6
f 734/365/6 763/363/6 733/356/6
f 749/293/6 736/366/6 737/361/6
f 735/367/6 763/363/6 734/365/6
f 749/293/6 735/367/6 736/366/6
f 735/367/6 762/368/6 763/363/6
f 764/369/6 776/364/6 763/363/6
f 749/293/6 751/370/6 735/367/6
f 751/370/6 762/368/6 735/367/6
f 765/371/6 776/364/6 764/369/6
f 751/370/6 761/372/6 762/368/6
f 751/370/6 760/373/6 761/372/6
f 751/370/6 759/374/6 760/373/6
f 766/375/6 776/364/6 765/371/6
f 751/370/6 758/376/6 759/374/6
f 751/370/6 757/377/6 758/376/6
f 751/370/6 756/378/6 757/377/6
f 751/370/6 755/379/6 756/378/6
f 767/380/6 776/364/6 766/375/6
f 751/370/6 754/381/6 755/379/6
f 751/370/6 753/382/6 754/381/6
f 751/370/6 752/383/6 753/382/6
f 749/293/6 750/384/6 751/370/6
f 768/385/6 776/364/6 767/380/6
f 769/386/6 776/364/6 768/385/6
f 770/387/6 776/364/6 769/386/6
f 771/388/6 776/364/6 770/387/6
f 772/389/6 776/364/6 771/388/6
f 773/390/6 776/364/6 772/389/6
f 774/391/6 776/364/6 773/390/6
f 775/392/6 776/364/6 774/391/6
f 801/3/6 803/394/6 802/393/6
f 801/3/6 804/8/6 803/394/6
f 390/342/9 391/343/9 793/343/9 792/342/9
f 278/264/10 279/263/10 681/263/10 680/264/10
f 136/140/11 137/136/11 539/136/11 538/140/11
f 86/102/12 87/98/12 489/98/12 488/102/12
f 392/344/13 393/345/13 795/345/13 794/344/13
f 104/22/14 105/20/14 507/20/14 506/22/14
f 90/84/15 91/80/15 493/80/15 492/84/15
f 394/346/16 395/347/16 797/347/16 796/346/16
f 94/66/17 95/60/17 497/60/17 496/66/17
f 98/39/18 99/33/18 501/33/18 500/39/18
f 384/351/19 385/350/19 787/350/19 786/351/19
f 138/132/20 139/129/20 541/129/20 540/132/20
f 112/159/21 113/163/21 515/163/21 514/159/21
f 102/26/22 103/24/22 505/24/22 504/26/22
f 332/365/23 333/367/23 735/367/23 734/365/23
f 386/340/24 387/336/24 789/336/24 788/340/24
f 106/18/25 107/16/25 509/16/25 508/18/25
f 116/171/26 117/175/26 519/175/26 518/171/26
f 120/181/27 121/185/27 523/185/27 522/181/27
f 110/154/28 111/155/28 513/155/28 512/154/28
f 348/384/29 349/370/29 751/370/29 750/384/29
f 124/178/30 125/176/30 527/176/30 526/178/30
f 65/195/31 66/193/31 468/193/31 467/195/31
f 290/230/32 291/227/32 693/227/32 692/230/32
f 128/166/33 129/164/33 531/164/33 530/166/33
f 114/165/34 115/169/34 517/169/34 516/165/34
f 310/309/35 311/308/35 713/308/35 712/309/35
f 294/225/36 295/208/36 697/208/36 696/225/36
f 118/177/37 119/179/37 521/179/37 520/177/37
f 292/224/38 293/207/38 695/207/38 694/224/38
f 132/153/39 133/150/39 535/150/39 534/153/39
f 273/271/40 274/270/40 676/270/40 675/271/40
f 122/182/41 123/180/41 525/180/41 524/182/41
f 275/269/42 276/267/42 678/267/42 677/269/42
f 277/266/43 278/264/43 680/264/43 679/266/43
f 270/276/44 271/274/44 673/274/44 672/276/44
f 144/111/45 145/109/45 547/109/45 546/111/45
f 130/160/46 131/156/46 533/156/46 532/160/46
f 260/289/47 261/288/47 663/288/47 662/289/47
f 279/263/48 280/261/48 682/261/48 681/263/48
f 148/97/49 149/93/49 551/93/49 550/97/49
f 134/146/50 135/145/50 537/145/50 536/146/50
f 373/392/36 374/364/36 776/364/36 775/392/36
f 140/126/51 141/122/51 543/122/51 542/126/51
f 152/83/52 153/79/52 555/79/52 554/83/52
f 161/53/53 162/51/53 564/51/53 563/53/53
f 398/8/54 297/3/54 699/3/54 800/8/54
f 160/57/55 161/53/55 563/53/55 562/57/55
f 146/105/56 147/101/56 549/101/56 548/105/56
f 375/362/57 376/360/57 778/360/57 777/362/57
f 401/394/35 400/393/35 802/393/35 803/394/35
f 400/393/58 399/3/58 801/3/58 802/393/58
f 281/260/32 282/258/32 684/258/32 683/260/32
f 150/91/59 151/87/59 553/87/59 552/91/59
f 399/3/36 402/8/36 804/8/36 801/3/36
f 402/8/29 401/394/29 803/394/29 804/8/29
f 297/3/60 298/334/60 700/334/60 699/3/60
f 123/180/61 124/178/61 526/178/61 525/180/61
f 299/332/62 300/330/62 702/330/62 701/332/62
f 172/40/63 173/42/63 575/42/63 574/40/63
f 301/327/64 302/326/64 704/326/64 703/327/64
f 176/50/65 177/52/65 579/52/65 578/50/65
f 162/51/66 163/47/66 565/47/66 564/51/66
f 303/323/67 304/321/67 706/321/67 705/323/67
f 166/41/68 167/37/68 569/37/68 568/41/68
f 305/318/69 306/316/69 708/316/69 707/318/69
f 180/62/70 181/64/70 583/64/70 582/62/70
f 170/35/71 171/36/71 573/36/71 572/35/71
f 307/314/72 308/311/72 710/311/72 709/314/72
f 309/310/35 310/309/35 712/309/35 711/310/35
f 311/308/35 312/307/35 714/307/35 713/308/35
f 184/76/73 185/78/73 587/78/73 586/76/73
f 396/348/74 397/349/74 799/349/74 798/348/74
f 188/90/75 189/92/75 591/92/75 590/90/75
f 174/44/76 175/46/76 577/46/76 576/44/76
f 313/306/35 314/305/35 716/305/35 715/306/35
f 178/56/77 179/58/77 581/58/77 580/56/77
f 315/304/35 316/303/35 718/303/35 717/304/35
f 192/104/78 193/108/78 595/108/78 594/104/78
f 317/302/35 318/301/35 720/301/35 719/302/35
f 182/69/79 183/72/79 585/72/79 584/69/79
f 196/119/80 197/123/80 599/123/80 598/119/80
f 319/300/35 320/299/35 722/299/35 721/300/35
f 186/82/81 187/86/81 589/86/81 588/82/81
f 377/359/82 378/358/82 780/358/82 779/359/82
f 190/96/83 191/100/83 593/100/83 592/96/83
f 321/298/84 322/297/84 724/297/84 723/298/84
f 200/133/85 201/137/85 603/137/85 602/133/85
f 194/112/86 195/115/86 597/115/86 596/112/86
f 323/315/87 324/319/87 726/319/87 725/315/87
f 325/322/88 326/325/88 728/325/88 727/322/88
f 198/127/89 199/130/89 601/130/89 600/127/89
f 327/328/90 328/331/90 730/331/90 729/328/90
f 329/335/91 330/338/91 732/338/91 731/335/91
f 202/141/92 203/144/92 605/144/92 604/141/92
f 331/356/93 332/365/93 734/365/93 733/356/93
f 205/3/94 206/206/94 608/206/94 607/3/94
f 333/367/29 334/366/29 736/366/29 735/367/29
f 207/252/95 208/248/95 610/248/95 609/252/95
f 209/246/96 210/242/96 612/242/96 611/246/96
f 335/361/29 336/339/29 738/339/29 737/361/29
f 264/284/47 265/282/47 667/282/47 666/284/47
f 337/333/29 338/329/29 740/329/29 739/333/29
f 211/238/97 212/235/97 614/235/97 613/238/97
f 1/3/35 2/2/35 404/2/35 403/3/35
f 339/324/29 340/320/29 742/320/29 741/324/29
f 213/231/98 214/226/98 616/226/98 615/231/98
f 2/2/99 3/1/99 405/1/99 404/2/99
f 167/37/100 168/34/100 570/34/100 569/37/100
f 3/1/36 4/11/36 406/11/36 405/1/36
f 341/317/29 342/313/29 744/313/29 743/317/29
f 217/221/101 218/219/101 620/219/101 619/221/101
f 343/312/29 344/296/29 746/296/29 745/312/29
f 219/218/102 220/217/102 622/217/102 621/218/102
f 129/164/103 130/160/103 532/160/103 531/164/103
f 5/9/36 6/10/36 408/10/36 407/9/36
f 345/295/35 346/294/35 748/294/35 747/295/35
f 221/216/102 222/215/102 624/215/102 623/216/102
f 15/15/104 16/17/104 418/17/104 417/15/104
f 6/10/105 7/12/105 409/12/105 408/10/105
f 223/214/102 224/213/102 626/213/102 625/214/102
f 19/23/106 20/25/106 422/25/106 421/23/106
f 8/5/107 1/3/107 403/3/107 410/5/107
f 347/293/36 348/384/36 750/384/36 749/293/36
f 225/212/102 226/211/102 628/211/102 627/212/102
f 23/31/108 24/38/108 426/38/108 425/31/108
f 227/210/102 228/209/102 630/209/102 629/210/102
f 27/61/109 28/67/109 430/67/109 429/61/109
f 349/370/110 350/383/110 752/383/110 751/370/110
f 229/205/111 230/204/111 632/204/111 631/205/111
f 31/81/112 32/85/112 434/85/112 433/81/112
f 10/4/105 11/7/105 413/7/105 412/4/105
f 142/118/113 143/114/113 545/114/113 544/118/113
f 35/99/114 36/103/114 438/103/114 437/99/114
f 39/116/115 40/120/115 442/120/115 441/116/115
f 233/220/116 234/229/116 636/229/116 635/220/116
f 43/134/117 44/138/117 446/138/117 445/134/117
f 133/150/118 134/146/118 536/146/118 535/150/118
f 7/12/36 8/5/36 410/5/36 409/12/36
f 360/368/119 361/363/119 763/363/119 762/368/119
f 235/232/120 236/234/120 638/234/120 637/232/120
f 47/151/121 48/157/121 450/157/121 449/151/121
f 51/173/122 52/183/122 454/183/122 453/173/122
f 237/237/123 238/239/123 640/239/123 639/237/123
f 55/190/124 56/192/124 458/192/124 457/190/124
f 59/198/125 60/200/125 462/200/125 461/198/125
f 9/6/126 10/4/126 412/4/126 411/6/126
f 239/241/127 240/243/127 642/243/127 641/241/127
f 4/11/126 5/9/126 407/9/126 406/11/126
f 361/363/128 362/369/128 764/369/128 763/363/128
f 241/245/129 242/247/129 644/247/129 643/245/129
f 363/371/128 364/375/128 766/375/128 765/371/128
f 243/250/130 244/251/130 646/251/130 645/250/130
f 12/8/35 9/6/35 411/6/35 414/8/35
f 365/380/128 366/385/128 768/385/128 767/380/128
f 71/174/131 72/168/131 474/168/131 473/174/131
f 11/7/35 12/8/35 414/8/35 413/7/35
f 245/253/132 246/255/132 648/255/132 647/253/132
f 75/152/133 76/148/133 478/148/133 477/152/133
f 13/3/134 14/13/134 416/13/134 415/3/134
f 367/386/128 368/387/128 770/387/128 769/386/128
f 79/135/135 80/131/135 482/131/135 481/135/135
f 17/19/136 18/21/136 420/21/136 419/19/136
f 369/388/128 370/389/128 772/389/128 771/388/128
f 249/262/137 250/265/137 652/265/137 651/262/137
f 83/117/138 84/113/138 486/113/138 485/117/138
f 131/156/139 132/153/139 534/153/139 533/156/139
f 371/390/128 372/391/128 774/391/128 773/390/128
f 251/268/140 252/272/140 654/272/140 653/268/140
f 87/98/141 88/94/141 490/94/141 489/98/141
f 21/27/142 22/29/142 424/29/142 423/27/142
f 253/275/143 254/278/143 656/278/143 655/275/143
f 156/68/144 157/65/144 559/65/144 558/68/144
f 25/48/145 26/54/145 428/54/145 427/48/145
f 255/283/146 256/287/146 658/287/146 657/283/146
f 91/80/147 92/74/147 494/74/147 493/80/147
f 29/71/148 30/75/148 432/75/148 431/71/148
f 257/290/47 258/292/47 660/292/47 659/290/47
f 95/60/149 96/55/149 498/55/149 497/60/149
f 33/89/150 34/95/150 436/95/150 435/89/150
f 37/107/151 38/110/151 440/110/151 439/107/151
f 41/124/152 42/128/152 444/128/152 443/124/152
f 45/142/153 46/147/153 448/147/153 447/142/153
f 49/161/154 50/167/154 452/167/154 451/161/154
f 53/186/155 54/188/155 456/188/155 455/186/155
f 381/354/156 382/353/156 784/353/156 783/354/156
f 57/194/157 58/196/157 460/196/157 459/194/157
f 383/352/158 384/351/158 786/351/158 785/352/158
f 265/282/47 266/281/47 668/281/47 667/282/47
f 61/202/159 62/201/159 464/201/159 463/202/159
f 385/350/160 386/340/160 788/340/160 787/350/160
f 267/280/47 268/279/47 670/279/47 669/280/47
f 154/77/161 155/73/161 557/73/161 556/77/161
f 387/336/162 388/337/162 790/337/162 789/336/162
f 111/155/163 112/159/163 514/159/163 513/155/163
f 99/33/164 100/30/164 502/30/164 501/33/164
f 389/341/165 390/342/165 792/342/165 791/341/165
f 271/274/166 272/273/166 674/273/166 673/274/166
f 115/169/167 116/171/167 518/171/167 517/169/167
f 391/343/168 392/344/168 794/344/168 793/343/168
f 73/162/169 74/158/169 476/158/169 475/162/169
f 77/143/170 78/139/170 480/139/170 479/143/170
f 393/345/171 394/346/171 796/346/171 795/345/171
f 280/261/172 281/260/172 683/260/172 682/261/172
f 81/125/173 82/121/173 484/121/173 483/125/173
f 119/179/174 120/181/174 522/181/174 521/179/174
f 85/106/175 86/102/175 488/102/175 487/106/175
f 395/347/176 396/348/176 798/348/176 797/347/176
f 89/88/177 90/84/177 492/84/177 491/88/177
f 93/70/178 94/66/178 496/66/178 495/70/178
f 397/349/179 398/8/179 800/8/179 799/349/179
f 97/49/180 98/39/180 500/39/180 499/49/180
f 364/375/128 365/380/128 767/380/128 766/375/128
f 283/256/32 284/254/32 686/254/32 685/256/32
f 127/170/181 128/166/181 530/166/181 529/170/181
f 326/325/182 327/328/182 729/328/182 728/325/182
f 285/249/32 286/244/32 688/244/32 687/249/32
f 287/240/32 288/236/32 690/236/32 689/240/32
f 108/14/183 13/3/183 415/3/183 510/14/183
f 289/233/32 290/230/32 692/230/32 691/233/32
f 109/149/184 110/154/184 512/154/184 511/149/184
f 291/227/32 292/224/32 694/224/32 693/227/32
f 135/145/185 136/140/185 538/140/185 537/145/185
f 293/207/58 294/225/58 696/225/58 695/207/58
f 113/163/186 114/165/186 516/165/186 515/163/186
f 296/8/35 205/3/35 607/3/35 698/8/35
f 139/129/187 140/126/187 542/126/187 541/129/187
f 158/63/188 159/59/188 561/59/188 560/63/188
f 232/228/29 233/220/29 635/220/29 634/228/29
f 117/175/189 118/177/189 520/177/189 519/175/189
f 272/273/190 273/271/190 675/271/190 674/273/190
f 121/185/191 122/182/191 524/182/191 523/185/191
f 351/382/192 352/381/192 754/381/192 753/382/192
f 269/277/193 270/276/193 672/276/193 671/277/193
f 143/114/194 144/111/194 546/111/194 545/114/194
f 125/176/195 126/172/195 528/172/195 527/176/195
f 215/223/196 216/222/196 618/222/196 617/223/196
f 295/208/29 296/8/29 698/8/29 697/208/29
f 276/267/197 277/266/197 679/266/197 678/267/197
f 382/353/198 383/352/198 785/352/198 784/353/198
f 266/281/47 267/280/47 669/280/47 668/281/47
f 155/73/199 156/68/199 558/68/199 557/73/199
f 231/203/36 232/228/36 634/228/36 633/203/36
f 137/136/200 138/132/200 540/132/200 539/136/200
f 259/291/47 260/289/47 662/289/47 661/291/47
f 353/379/201 354/378/201 756/378/201 755/379/201
f 159/59/202 160/57/202 562/57/202 561/59/202
f 101/28/203 102/26/203 504/26/203 503/28/203
f 163/47/204 164/45/204 566/45/204 565/47/204
f 141/122/205 142/118/205 544/118/205 543/122/205
f 355/377/206 356/376/206 758/376/206 757/377/206
f 103/24/207 104/22/207 506/22/207 505/24/207
f 298/334/208 299/332/208 701/332/208 700/334/208
f 247/257/209 248/259/209 650/259/209 649/257/209
f 300/330/210 301/327/210 703/327/210 702/330/210
f 302/326/211 303/323/211 705/323/211 704/326/211
f 304/321/212 305/318/212 707/318/212 706/321/212
f 171/36/213 172/40/213 574/40/213 573/36/213
f 153/79/214 154/77/214 556/77/214 555/79/214
f 306/316/215 307/314/215 709/314/215 708/316/215
f 261/288/47 262/286/47 664/286/47 663/288/47
f 175/46/216 176/50/216 578/50/216 577/46/216
f 376/360/217 377/359/217 779/359/217 778/360/217
f 308/311/218 309/310/218 711/310/218 710/311/218
f 282/258/32 283/256/32 685/256/32 684/258/32
f 179/58/219 180/62/219 582/62/219 581/58/219
f 157/65/220 158/63/220 560/63/220 559/65/220
f 379/357/221 380/355/221 782/355/221 781/357/221
f 263/285/47 264/284/47 666/284/47 665/285/47
f 183/72/222 184/76/222 586/76/222 585/72/222
f 312/307/35 313/306/35 715/306/35 714/307/35
f 206/206/223 207/252/223 609/252/223 608/206/223
f 314/305/35 315/304/35 717/304/35 716/305/35
f 165/43/224 166/41/224 568/41/224 567/43/224
f 357/374/225 358/373/225 760/373/225 759/374/225
f 208/248/226 209/246/226 611/246/226 610/248/226
f 187/86/227 188/90/227 590/90/227 589/86/227
f 169/32/228 170/35/228 572/35/228 571/32/228
f 316/303/35 317/302/35 719/302/35 718/303/35
f 210/242/229 211/238/229 613/238/229 612/242/229
f 173/42/230 174/44/230 576/44/230 575/42/230
f 318/301/35 319/300/35 721/300/35 720/301/35
f 212/235/231 213/231/231 615/231/231 614/235/231
f 320/299/35 321/298/35 723/298/35 722/299/35
f 214/226/232 215/223/232 617/223/232 616/226/232
f 191/100/233 192/104/233 594/104/233 593/100/233
f 284/254/32 285/249/32 687/249/32 686/254/32
f 164/45/234 165/43/234 567/43/234 566/45/234
f 322/297/235 323/315/235 725/315/235 724/297/235
f 216/222/236 217/221/236 619/221/236 618/222/236
f 177/52/237 178/56/237 580/56/237 579/52/237
f 218/219/111 219/218/111 621/218/111 620/219/111
f 195/115/238 196/119/238 598/119/238 597/115/238
f 181/64/239 182/69/239 584/69/239 583/64/239
f 324/319/240 325/322/240 727/322/240 726/319/240
f 220/217/102 221/216/102 623/216/102 622/217/102
f 199/130/241 200/133/241 602/133/241 601/130/241
f 222/215/102 223/214/102 625/214/102 624/215/102
f 185/78/242 186/82/242 588/82/242 587/78/242
f 145/109/243 146/105/243 548/105/243 547/109/243
f 224/213/102 225/212/102 627/212/102 626/213/102
f 203/144/244 204/8/244 606/8/244 605/144/244
f 328/331/245 329/335/245 731/335/245 730/331/245
f 226/211/102 227/210/102 629/210/102 628/211/102
f 204/8/246 109/149/246 511/149/246 606/8/246
f 330/338/247 331/356/247 733/356/247 732/338/247
f 228/209/102 229/205/102 631/205/102 630/209/102
f 189/92/248 190/96/248 592/96/248 591/92/248
f 230/204/58 231/203/58 633/203/58 632/204/58
f 126/172/249 127/170/249 529/170/249 528/172/249
f 334/366/29 335/361/29 737/361/29 736/366/29
f 105/20/250 106/18/250 508/18/250 507/20/250
f 336/339/29 337/333/29 739/333/29 738/339/29
f 107/16/251 108/14/251 510/14/251 509/16/251
f 193/108/252 194/112/252 596/112/252 595/108/252
f 338/329/29 339/324/29 741/324/29 740/329/29
f 234/229/253 235/232/253 637/232/253 636/229/253
f 340/320/29 341/317/29 743/317/29 742/320/29
f 197/123/254 198/127/254 600/127/254 599/123/254
f 359/372/255 360/368/255 762/368/255 761/372/255
f 236/234/256 237/237/256 639/237/256 638/234/256
f 238/239/257 239/241/257 641/241/257 640/239/257
f 69/187/258 70/184/258 472/184/258 471/187/258
f 201/137/259 202/141/259 604/141/259 603/137/259
f 344/296/29 345/295/29 747/295/29 746/296/29
f 63/199/260 64/197/260 466/197/260 465/199/260
f 346/294/58 347/293/58 749/293/58 748/294/58
f 240/243/261 241/245/261 643/245/261 642/243/261
f 168/34/262 169/32/262 571/32/262 570/34/262
f 286/244/32 287/240/32 689/240/32 688/244/32
f 149/93/263 150/91/263 552/91/263 551/93/263
f 67/191/264 68/189/264 470/189/264 469/191/264
f 350/383/265 351/382/265 753/382/265 752/383/265
f 242/247/266 243/250/266 645/250/266 644/247/266
f 16/17/267 17/19/267 419/19/267 418/17/267
f 352/381/268 353/379/268 755/379/268 754/381/268
f 244/251/269 245/253/269 647/253/269 646/251/269
f 20/25/270 21/27/270 423/27/270 422/25/270
f 354/378/271 355/377/271 757/377/271 756/378/271
f 24/38/272 25/48/272 427/48/272 426/38/272
f 147/101/273 148/97/273 550/97/273 549/101/273
f 356/376/274 357/374/274 759/374/274 758/376/274
f 246/255/275 247/257/275 649/257/275 648/255/275
f 28/67/276 29/71/276 431/71/276 430/67/276
f 358/373/277 359/372/277 761/372/277 760/373/277
f 248/259/278 249/262/278 651/262/278 650/259/278
f 32/85/279 33/89/279 435/89/279 434/85/279
f 14/13/280 15/15/280 417/15/280 416/13/280
f 380/355/281 381/354/281 783/354/281 782/355/281
f 250/265/282 251/268/282 653/268/282 652/265/282
f 36/103/283 37/107/283 439/107/283 438/103/283
f 18/21/284 19/23/284 421/23/284 420/21/284
f 252/272/285 253/275/285 655/275/285 654/272/285
f 40/120/286 41/124/286 443/124/286 442/120/286
f 22/29/287 23/31/287 425/31/287 424/29/287
f 362/369/128 363/371/128 765/371/128 764/369/128
f 254/278/288 255/283/288 657/283/288 656/278/288
f 44/138/289 45/142/289 447/142/289 446/138/289
f 151/87/290 152/83/290 554/83/290 553/87/290
f 48/157/291 49/161/291 451/161/291 450/157/291
f 26/54/292 27/61/292 429/61/292 428/54/292
f 366/385/128 367/386/128 769/386/128 768/385/128
f 256/287/293 257/290/293 659/290/293 658/287/293
f 52/183/294 53/186/294 455/186/294 454/183/294
f 30/75/295 31/81/295 433/81/295 432/75/295
f 368/387/128 369/388/128 771/388/128 770/387/128
f 258/292/47 259/291/47 661/291/47 660/292/47
f 56/192/296 57/194/296 459/194/296 458/192/296
f 34/95/297 35/99/297 437/99/297 436/95/297
f 370/389/128 371/390/128 773/390/128 772/389/128
f 268/279/47 269/277/47 671/277/47 670/279/47
f 60/200/298 61/202/298 463/202/298 462/200/298
f 38/110/299 39/116/299 441/116/299 440/110/299
f 372/391/128 373/392/128 775/392/128 774/391/128
f 42/128/300 43/134/300 445/134/300 444/128/300
f 46/147/301 47/151/301 449/151/301 448/147/301
f 374/364/302 375/362/302 777/362/302 776/364/302
f 262/286/47 263/285/47 665/285/47 664/286/47
f 64/197/224 65/195/224 467/195/224 466/197/224
f 50/167/303 51/173/303 453/173/303 452/167/303
f 342/313/29 343/312/29 745/312/29 744/313/29
f 54/188/304 55/190/304 457/190/304 456/188/304
f 378/358/305 379/357/305 781/357/305 780/358/305
f 58/196/306 59/198/306 461/198/306 460/196/306
f 68/189/307 69/187/307 471/187/307 470/189/307
f 62/201/308 63/199/308 465/199/308 464/201/308
f 288/236/32 289/233/32 691/233/32 690/236/32
f 72/168/309 73/162/309 475/162/309 474/168/309
f 76/148/310 77/143/310 479/143/310 478/148/310
f 66/193/311 67/191/311 469/191/311 468/193/311
f 80/131/312 81/125/312 483/125/312 482/131/312
f 84/113/313 85/106/313 487/106/313 486/113/313
f 274/270/314 275/269/314 677/269/314 676/270/314
f 88/94/315 89/88/315 491/88/315 490/94/315
f 70/184/316 71/174/316 473/174/316 472/184/316
f 92/74/317 93/70/317 495/70/317 494/74/317
f 74/158/318 75/152/318 477/152/318 476/158/318
f 96/55/319 97/49/319 499/49/319 498/55/319
f 78/139/320 79/135/320 481/135/320 480/139/320
f 388/337/321 389/341/321 791/341/321 790/337/321
f 100/30/322 101/28/322 503/28/322 502/30/322
f 82/121/323 83/117/323 485/117/323 484/121/323
